<svg xmlns="http://www.w3.org/2000/svg" viewBox="0 0 85.33 72.5"><defs><style>.cls-1{fill:#97a15c;}.cls-2{fill:#412c01;}.cls-3{fill:#7b6e5e;}.cls-4{fill:#898471;}.cls-5{fill:#735f47;}.cls-6{fill:#483320;}.cls-7{fill:#9c9078;}.cls-8{fill:#867353;}.cls-9{fill:#8a6838;}.cls-10{fill:#47351d;}.cls-11{fill:#856034;}.cls-12{fill:#b4a892;}.cls-13{fill:#6d6f62;}.cls-14{fill:#827157;}.cls-15{fill:#999282;}.cls-16{fill:#534230;}.cls-17{fill:#c2c2ba;}.cls-18{fill:#6f5838;}.cls-19{fill:#5e554e;}.cls-20{fill:#3e3f3a;}.cls-21{fill:#9a9389;}.cls-22{fill:#798488;}.cls-23{fill:#0e0e0e;}.cls-24{fill:#1d1d15;}.cls-25{fill:#524e43;}.cls-26{fill:#4f473a;}.cls-27{fill:#bab29d;}.cls-28{fill:#181a19;}.cls-29{fill:#ccccca;}.cls-30{fill:#9f9385;}.cls-31{fill:#787065;}.cls-32{fill:#9a978e;}.cls-33{fill:#61605b;}.cls-34{fill:#988c7c;}.cls-35{fill:#555249;}.cls-36{fill:#444442;}.cls-37{fill:#050028;}.cls-38{fill:#decbaa;}.cls-39{fill:#dbdbdb;}.cls-40{fill:#a49e8e;}</style></defs><g id="Слой_4" data-name="Слой 4"><path class="cls-1" d="M20.35,58.54a1.35,1.35,0,0,0-.28,1.23A4.21,4.21,0,0,0,20.64,61a12.77,12.77,0,0,0,1.66,2.26A6.16,6.16,0,0,0,26.47,65" transform="translate(-0.78 1.5)"/><path d="M20,58.18a2.14,2.14,0,0,0-.07,2.55,13.63,13.63,0,0,0,1.64,2.43,6.74,6.74,0,0,0,4.9,2.33c.64,0,.64-1,0-1a5.67,5.67,0,0,1-4-1.79,12.22,12.22,0,0,1-1.37-1.9c-.3-.49-.93-1.35-.43-1.91s-.27-1.19-.7-.71Z" transform="translate(-0.78 1.5)"/><path class="cls-1" d="M26.1,65l1-.41a1.82,1.82,0,0,0-.09-1.37,8.29,8.29,0,0,0-2.26-3.54,4.87,4.87,0,0,0-3.93-1.2l-.83.47" transform="translate(-0.78 1.5)"/><path d="M26.24,65.46c.42-.17,1.19-.33,1.38-.77a2.24,2.24,0,0,0-.09-1.63,10.29,10.29,0,0,0-.64-1.49,6.4,6.4,0,0,0-5-3.67,2.64,2.64,0,0,0-1.39.19l-.71.4a.5.5,0,0,0,.5.86l.54-.3a1.06,1.06,0,0,1,.67-.16,4.4,4.4,0,0,1,2.59.84,6.23,6.23,0,0,1,1.78,2A8.17,8.17,0,0,1,26.45,63a2,2,0,0,1,.21,1.42l.34-.35-1,.42a.52.52,0,0,0-.35.62.51.51,0,0,0,.62.35Z" transform="translate(-0.78 1.5)"/><path class="cls-1" d="M2.91,44.86l-.86-.37a3.38,3.38,0,0,0-.69,2.08A6.59,6.59,0,0,0,3,50.2l1,1.44L4.58,50" transform="translate(-0.78 1.5)"/><path d="M3.16,44.42l-.85-.36a.52.52,0,0,0-.69.18,4,4,0,0,0-.42,3.94,18.58,18.58,0,0,0,2.38,3.71.51.51,0,0,0,.92-.12l.57-1.59c.21-.61-.75-.87-1-.27l-.57,1.6.92-.12c-1.33-1.84-3.69-4.34-2-6.65l-.69.18.85.37a.52.52,0,0,0,.69-.18.51.51,0,0,0-.18-.69Z" transform="translate(-0.78 1.5)"/><path class="cls-1" d="M2.81,28.32l-.61,0a25.9,25.9,0,0,1,0,4.13,7.66,7.66,0,0,0,.74,4,2,2,0,0,0,1.48,1.16L5,36.36" transform="translate(-0.78 1.5)"/><path d="M2.81,27.82l-.61,0a.5.5,0,0,0-.5.5c.24,2-.21,4,0,6,.19,1.56.85,3.61,2.65,3.84a.48.48,0,0,0,.43-.25l.62-1.23c.29-.57-.57-1.08-.86-.5L4,37.34l.43-.25c-.69-.09-1.11-.93-1.33-1.51a7.11,7.11,0,0,1-.39-2.29c-.05-1.67.24-3.34,0-5l-.5.5.61,0c.64,0,.64-1,0-1Z" transform="translate(-0.78 1.5)"/><path class="cls-1" d="M5,22.66a2.3,2.3,0,0,1-2,.19,2.21,2.21,0,0,1-.92-2L1.74,16.2" transform="translate(-0.78 1.5)"/><path d="M4.75,22.23a1.58,1.58,0,0,1-1.66.06,1.94,1.94,0,0,1-.48-1.36c-.13-1.57-.25-3.15-.37-4.73-.05-.64-1.05-.64-1,0l.23,2.87a20.93,20.93,0,0,0,.24,2.61A2.17,2.17,0,0,0,2.83,23.3a2.79,2.79,0,0,0,2.42-.21c.58-.28.07-1.14-.5-.86Z" transform="translate(-0.78 1.5)"/><path class="cls-1" d="M3.59,5.9A4.91,4.91,0,0,0,1.4,8.81,4.29,4.29,0,0,0,2,12.24c.31.46.92.93,1.48.7h.6" transform="translate(-0.78 1.5)"/><path d="M3.34,5.47A5.19,5.19,0,0,0,.82,10.41a4.13,4.13,0,0,0,1.27,2.64,1.61,1.61,0,0,0,1.35.42,4.16,4.16,0,0,1,.66,0,.5.5,0,0,0,0-1H3.54c-.12,0-.22.05-.34.06a.76.76,0,0,1-.45-.19,3.26,3.26,0,0,1-1-2.13A4.18,4.18,0,0,1,3.84,6.34c.54-.35,0-1.22-.5-.87Z" transform="translate(-0.78 1.5)"/><path class="cls-2" d="M13.7,68c-.69-3.86-1.34-8.08.53-11.51A4.25,4.25,0,0,1,17.63,54a5.2,5.2,0,0,1,1.41.23,60.22,60.22,0,0,0,7.64,1.36c2.72.3,5.45.41,8.18.52l11.21.46c2.7.11,5.41.22,8.11.19C60,56.67,65.7,56,71.46,56l9.74.7a15.54,15.54,0,0,0-5.74-4.4c-3.38-1.49-7.15-1.7-10.83-1.91q-14.89-.83-29.78-1.9Q27.41,47.91,20,47.3c-1.11-.09-2.12.16-2.58-.77s.07-2.79.18-3.67c.29-2.45.86-4.85,1.12-7.3a53.44,53.44,0,0,0,.11-7.27C18.46,18.5,17.56,8.79,17.39-1h-9L8.17,5.15c.65,9.13-.74,18.27-1,27.41C7,37.74,7.23,42.92,7,48.09c-.37,6.57-1.53,13.18-.52,19.68L10.5,70.5Z" transform="translate(-0.78 1.5)"/><path d="M14.18,67.84c-.5-2.79-1-5.73-.43-8.55a7.77,7.77,0,0,1,1.71-3.71,3.42,3.42,0,0,1,1.59-1,4.76,4.76,0,0,1,2.33.24c6.4,1.52,12.93,1.68,19.47,1.95s13.18.68,19.78.36c3.29-.16,6.57-.42,9.87-.55a39.45,39.45,0,0,1,4.35,0l8.35.6c.48,0,.61-.55.36-.86A16.4,16.4,0,0,0,73.48,51c-3.43-1-7-1.07-10.58-1.27q-11.68-.64-23.34-1.47-5.82-.41-11.66-.85L22,47c-.84-.06-1.68-.16-2.52-.18-.63,0-1.45.09-1.65-.67a5,5,0,0,1,.07-1.85c.1-.66.2-1.32.29-2,.26-1.89.66-3.75.91-5.64a63.17,63.17,0,0,0,.13-11.34C18.79,16.53,18.05,7.78,17.89-1a.5.5,0,0,0-.5-.5h-9a.51.51,0,0,0-.5.5c-.07,2.29-.26,4.61-.13,6.89A143.33,143.33,0,0,1,7.1,24.65c-.22,3.13-.41,6.26-.46,9.39s0,6.33,0,9.49S6.35,49.82,6.07,53s-.55,6.16-.54,9.25a37.58,37.58,0,0,0,.31,5c.06.45,0,.8.42,1.08.21.15.44.29.65.43l3.34,2.24a.49.49,0,0,0,.6-.08l3.2-2.53c.51-.39-.2-1.1-.7-.7l-3.2,2.53.6-.08L6.68,67.34l.23.3c-.79-5.2-.2-10.46.25-15.66s.43-10.47.45-15.72S8,25.72,8.4,20.45c.19-2.63.35-5.26.41-7.9.06-2.48-.1-4.94-.14-7.41,0-2,.11-4.1.17-6.14l-.5.5h9.05l-.5-.5c.15,8,.76,15.88,1.17,23.82a96.3,96.3,0,0,1,.21,11.77C18,38,17.18,41.33,16.79,44.72c-.12,1.08-.11,2.43,1.09,2.88a6.12,6.12,0,0,0,1.91.19c1,.05,1.94.16,2.91.23q5.94.48,11.9.91,11.85.85,23.7,1.56l6.56.37a51.15,51.15,0,0,1,6.17.61A16.14,16.14,0,0,1,80.85,57l.35-.85-7.68-.55c-4.63-.34-9.27.17-13.9.42-6.77.36-13.51,0-20.28-.29-3.47-.14-7-.23-10.43-.5a65.93,65.93,0,0,1-10-1.6,4,4,0,0,0-3.93,1,8,8,0,0,0-2.09,3.82c-.84,3.16-.27,6.51.3,9.67C13.33,68.74,14.29,68.47,14.18,67.84Z" transform="translate(-0.78 1.5)"/><path d="M10.29,4.79a31.81,31.81,0,0,1-.78,6c-.15.63.82.89,1,.27a32.35,32.35,0,0,0,.82-6.26.5.5,0,0,0-1,0Z" transform="translate(-0.78 1.5)"/><path d="M12.82,7.47,12,18.83c-.05.64.95.64,1,0l.85-11.36c0-.64-1-.64-1,0Z" transform="translate(-0.78 1.5)"/><path d="M16.49,18.58A88.81,88.81,0,0,1,14.1,29a.5.5,0,0,0,1,.27,88.77,88.77,0,0,0,2.38-10.45c.11-.63-.86-.9-1-.27Z" transform="translate(-0.78 1.5)"/><path d="M7.6,19.72C8,23.46,8.18,27.2,8.21,31a.5.5,0,0,0,1,0c0-3.76-.24-7.5-.61-11.24-.06-.63-1.06-.64-1,0Z" transform="translate(-0.78 1.5)"/><path d="M15.88,17.92a43.77,43.77,0,0,1-4.54,10.74.5.5,0,0,0,.87.5,44.91,44.91,0,0,0,4.63-11,.5.5,0,0,0-1-.27Z" transform="translate(-0.78 1.5)"/><path d="M10,35.81v4.85a.5.5,0,0,0,1,0V35.81a.5.5,0,0,0-1,0Z" transform="translate(-0.78 1.5)"/><path d="M17.65,30.05l-3.2,11.49a.5.5,0,0,0,1,.26l3.2-11.49a.5.5,0,0,0-1-.26Z" transform="translate(-0.78 1.5)"/><path d="M11.55,32.36a43.61,43.61,0,0,1-.38,10.21c-.09.63.87.9,1,.26a44.73,44.73,0,0,0,.41-10.47c0-.64-1-.64-1,0Z" transform="translate(-0.78 1.5)"/><path d="M14.4,32.22c.16.42-.14,1.17-.24,1.6s-.21,1-.32,1.43c-.24,1.08-.5,2.15-.77,3.22-.52,2.09-1.09,4.18-1.69,6.25a.5.5,0,0,0,1,.27c.65-2.23,1.26-4.48,1.82-6.73.27-1.11.53-2.22.78-3.34.13-.55.25-1.11.37-1.67a2.31,2.31,0,0,0,0-1.3c-.23-.6-1.19-.34-1,.27Z" transform="translate(-0.78 1.5)"/><path d="M7.49,39.1A92.74,92.74,0,0,0,6.23,54.7a.5.5,0,0,0,1,0A91.61,91.61,0,0,1,8.45,39.37c.1-.63-.86-.9-1-.27Z" transform="translate(-0.78 1.5)"/><path d="M12.71,45.89C12.23,50.16,10,54,9.17,58.15c-.13.63.84.9,1,.27.88-4.27,3.08-8.16,3.57-12.53.07-.64-.93-.63-1,0Z" transform="translate(-0.78 1.5)"/><path d="M15.62,45.77a22.1,22.1,0,0,1-1.13,8.42c-.2.61.76.87,1,.26a23,23,0,0,0,1.16-8.68c0-.64-1-.65-1,0Z" transform="translate(-0.78 1.5)"/><path d="M8.53,47.42c.11,5.07-2.91,9.73-2.07,14.86.1.63,1.06.36,1-.27-.81-5,2.22-9.63,2.11-14.59a.5.5,0,0,0-1,0Z" transform="translate(-0.78 1.5)"/><path d="M10,62.63a29.88,29.88,0,0,1,.15,6.88c-.06.64.94.64,1,0A31.09,31.09,0,0,0,11,62.36a.5.5,0,1,0-1,.27Z" transform="translate(-0.78 1.5)"/><path d="M8.25,62.24A18.66,18.66,0,0,1,7.09,67a.51.51,0,0,0,.35.62.52.52,0,0,0,.61-.35,19.57,19.57,0,0,0,1.2-5,.5.5,0,0,0-.5-.5.51.51,0,0,0-.5.5Z" transform="translate(-0.78 1.5)"/><path d="M12.44,57.77a17.63,17.63,0,0,1-.75,6.12c-.19.61.77.88,1,.26a18.38,18.38,0,0,0,.79-6.38c0-.64-1-.65-1,0Z" transform="translate(-0.78 1.5)"/><path d="M12.62,53.43a21.75,21.75,0,0,1-1.95,6.74c-.27.58.59,1.09.86.51a23.3,23.3,0,0,0,2.09-7.25.5.5,0,0,0-1,0Z" transform="translate(-0.78 1.5)"/><path d="M9.35,43.57a15.71,15.71,0,0,1,.88,6.15c0,.64,1,.64,1,0a16.13,16.13,0,0,0-.92-6.42c-.22-.6-1.18-.34-1,.27Z" transform="translate(-0.78 1.5)"/><path d="M11.36,20.35a35,35,0,0,1,.16,6.14c0,.64,1,.64,1,0a35,35,0,0,0-.16-6.14.51.51,0,0,0-.5-.5.51.51,0,0,0-.5.5Z" transform="translate(-0.78 1.5)"/><path d="M9.94,13.46q.15,2.68.06,5.37c0,.64,1,.64,1,0q.09-2.68-.06-5.37c0-.64-1-.64-1,0Z" transform="translate(-0.78 1.5)"/><path d="M14.24,7.86a33,33,0,0,1,.74,6.5.5.5,0,0,0,1,0,34.36,34.36,0,0,0-.78-6.77c-.13-.63-1.1-.36-1,.27Z" transform="translate(-0.78 1.5)"/><path d="M13,1.83A13.93,13.93,0,0,0,12.7,5.3a.51.51,0,0,0,.5.5.5.5,0,0,0,.5-.5A13.27,13.27,0,0,1,14,2.09a.5.5,0,0,0-1-.26Z" transform="translate(-0.78 1.5)"/><path d="M15,5.81v.38a.41.41,0,0,0,0,.19.39.39,0,0,0,.11.17.37.37,0,0,0,.16.1.41.41,0,0,0,.19,0l.13,0a.43.43,0,0,0,.22-.12l.08-.11A.43.43,0,0,0,16,6.19V5.81a.41.41,0,0,0,0-.19.39.39,0,0,0-.11-.17.44.44,0,0,0-.16-.1.41.41,0,0,0-.19,0l-.13,0a.43.43,0,0,0-.22.12l-.08.11a.43.43,0,0,0-.07.25Z" transform="translate(-0.78 1.5)"/><path d="M10.49,1.18A4.45,4.45,0,0,0,9.12,4a.51.51,0,0,0,.5.5.5.5,0,0,0,.5-.5V3.94c0-.06,0,0,0,0a1,1,0,0,1,0-.18c0-.11.05-.22.08-.33s.06-.21.1-.32l0-.07c0-.07,0,.07,0,0s.05-.11.07-.17a6.42,6.42,0,0,1,.34-.56h0l.05-.06.1-.12.25-.26a.5.5,0,0,0,0-.71.51.51,0,0,0-.7,0Z" transform="translate(-0.78 1.5)"/><path d="M15.23,2.25l1,2.91a.52.52,0,0,0,.62.35.51.51,0,0,0,.35-.62L16.2,2a.53.53,0,0,0-.62-.35.51.51,0,0,0-.35.62Z" transform="translate(-0.78 1.5)"/><path d="M20,52.39c-.09-.33.18-.66.37-.9s.59-.73.89-1.08c.61-.69,1.25-1.35,1.92-2,.46-.44-.24-1.15-.71-.7A28.18,28.18,0,0,0,20.29,50a13.63,13.63,0,0,0-1,1.2A1.78,1.78,0,0,0,19,52.65a.5.5,0,0,0,1-.26Z" transform="translate(-0.78 1.5)"/><path d="M23.17,50.35A14.83,14.83,0,0,0,26.71,53a.5.5,0,0,0,.5-.87,13.85,13.85,0,0,1-3.34-2.49c-.45-.46-1.16.25-.7.71Z" transform="translate(-0.78 1.5)"/><path d="M30.44,50.38A7.73,7.73,0,0,1,28,54.44a.48.48,0,0,0,0,.7.49.49,0,0,0,.7,0,8.53,8.53,0,0,0,2.7-4.49.52.52,0,0,0-.35-.62.5.5,0,0,0-.61.35Z" transform="translate(-0.78 1.5)"/><path d="M33.23,54.35a38.74,38.74,0,0,1,5.49.24.5.5,0,0,0,.5-.5.51.51,0,0,0-.5-.5,38.74,38.74,0,0,0-5.49-.24.5.5,0,0,0,0,1Z" transform="translate(-0.78 1.5)"/><path d="M52.53,54.73c2-.5,4-1.07,6-1.72.6-.2.34-1.16-.27-1-2,.64-4,1.22-6,1.72-.62.15-.35,1.12.27,1Z" transform="translate(-0.78 1.5)"/><path d="M65.68,53.57a21.66,21.66,0,0,0,3.79,1.9.5.5,0,0,0,.62-.35.52.52,0,0,0-.35-.61,20.41,20.41,0,0,1-3.55-1.8.51.51,0,0,0-.69.18.5.5,0,0,0,.18.68Z" transform="translate(-0.78 1.5)"/><path d="M74,52.79a4.6,4.6,0,0,0,.45,2.42.51.51,0,0,0,.69.18.52.52,0,0,0,.18-.69.61.61,0,0,1-.07-.14c0-.11,0,.1,0,0l-.09-.25a4.94,4.94,0,0,1-.13-.52s0-.08,0-.12v-.06a2.46,2.46,0,0,1,0-.26,3.25,3.25,0,0,1,0-.54.51.51,0,0,0-.5-.5.51.51,0,0,0-.5.5Z" transform="translate(-0.78 1.5)"/><path d="M66.81,52.07a23.4,23.4,0,0,0,5.88,2.13c.63.13.9-.83.27-1a22.5,22.5,0,0,1-5.64-2c-.57-.3-1.08.56-.51.86Z" transform="translate(-0.78 1.5)"/><path d="M62.06,51.91l-.06.18s0,.12,0,0,0,0,0,0a2.55,2.55,0,0,1-.17.33,3.45,3.45,0,0,1-.2.32s-.07.09,0,0l0,0-.12.14a3.44,3.44,0,0,1-.27.27l-.12.11-.08.06,0,0,0,0a3.43,3.43,0,0,1-.64.37.51.51,0,0,0-.18.69.51.51,0,0,0,.68.18A4.28,4.28,0,0,0,63,52.18a.5.5,0,0,0-.35-.62.52.52,0,0,0-.61.35Z" transform="translate(-0.78 1.5)"/><path d="M58.15,53.44a9.2,9.2,0,0,1-4.37,1.81.5.5,0,0,0,.27,1,10.17,10.17,0,0,0,4.81-2.07.51.51,0,0,0,0-.71.52.52,0,0,0-.71,0Z" transform="translate(-0.78 1.5)"/><path d="M51,51.58a10.77,10.77,0,0,1-3.65,2.11.51.51,0,0,0-.35.61.51.51,0,0,0,.62.35,11.92,11.92,0,0,0,4.09-2.37.5.5,0,0,0-.71-.7Z" transform="translate(-0.78 1.5)"/><path d="M41.57,51.47l3.94,3.59a.51.51,0,0,0,.71,0,.5.5,0,0,0,0-.7l-3.95-3.59a.5.5,0,0,0-.7,0,.49.49,0,0,0,0,.7Z" transform="translate(-0.78 1.5)"/><path d="M39.36,50.86a45.69,45.69,0,0,0-5.1-.1c-.65,0-.65,1,0,1a45.69,45.69,0,0,1,5.1.1.5.5,0,0,0,0-1Z" transform="translate(-0.78 1.5)"/><path d="M33.74,51.76a.5.5,0,0,0,0-1,.5.5,0,0,0,0,1Z" transform="translate(-0.78 1.5)"/><path d="M39.5,54l2,1.28a.49.49,0,0,0,.68-.18.5.5,0,0,0-.18-.68l-2-1.28a.49.49,0,0,0-.68.18.5.5,0,0,0,.18.68Z" transform="translate(-0.78 1.5)"/><path d="M27.9,49.62a2.49,2.49,0,0,0-.42.65,2.9,2.9,0,0,0-.16.41,2.22,2.22,0,0,0-.07.45.46.46,0,0,0,.14.35.53.53,0,0,0,.36.15.51.51,0,0,0,.35-.15l.08-.1a.55.55,0,0,0,.07-.25v.07a2,2,0,0,1,.14-.53l-.05.12a2.13,2.13,0,0,1,.27-.46l-.08.1.09-.1a.52.52,0,0,0,.14-.35.48.48,0,0,0-.5-.5.47.47,0,0,0-.35.14Z" transform="translate(-0.78 1.5)"/><path d="M17.8,48.45v2.81a.51.51,0,0,0,.5.5.51.51,0,0,0,.5-.5V48.45a.5.5,0,0,0-.5-.5.51.51,0,0,0-.5.5Z" transform="translate(-0.78 1.5)"/><path d="M21.75,52.81a10.37,10.37,0,0,1,1.47.31c.24.07.47.15.71.24l.35.14.07,0,.2.09a.51.51,0,0,0,.68-.18.49.49,0,0,0-.18-.68,10.4,10.4,0,0,0-3-.91.52.52,0,0,0-.62.35.5.5,0,0,0,.35.61Z" transform="translate(-0.78 1.5)"/><path d="M64.13,51.28a9.52,9.52,0,0,1-.87,1.39l0,.07c-.05.07,0-.05,0,0a1.83,1.83,0,0,1-.13.16,3.82,3.82,0,0,1-.27.32c-.18.2-.37.4-.57.59a.5.5,0,0,0,.71.71,10.62,10.62,0,0,0,2-2.74.5.5,0,1,0-.86-.51Z" transform="translate(-0.78 1.5)"/><path d="M18.44,12.31a9.75,9.75,0,0,0,2.27-1.11.5.5,0,0,0-.5-.86,10.53,10.53,0,0,1-1,.59l-.26.12-.14.07-.08,0h0l-.56.21a.52.52,0,0,0-.35.61.51.51,0,0,0,.62.35Z" transform="translate(-0.78 1.5)"/><path class="cls-1" d="M21.29,10v.53a1,1,0,0,0,.86.51,4.18,4.18,0,0,0,2.11-.52l1.67-.73a3.66,3.66,0,0,0,.78-.42,3.59,3.59,0,0,0,.78-.91l1.09-1.59L28,6.49a5.66,5.66,0,0,0-7,4.07" transform="translate(-0.78 1.5)"/><path d="M20.79,10a4.69,4.69,0,0,0,0,.53,1.18,1.18,0,0,0,.81.89A3.82,3.82,0,0,0,24.45,11L26,10.33a4.5,4.5,0,0,0,1.22-.7,6.32,6.32,0,0,0,.85-1.08l1-1.41a.5.5,0,0,0-.18-.68,6.28,6.28,0,0,0-.52-.38A3.13,3.13,0,0,0,27,5.81a6.17,6.17,0,0,0-3,.45,6.28,6.28,0,0,0-3.58,4.17.5.5,0,0,0,1,.26,5.26,5.26,0,0,1,3-3.51,5.36,5.36,0,0,1,2.47-.39,2.52,2.52,0,0,1,.95.2c.16.09.31.22.47.33l-.18-.68c-.46.67-.89,1.39-1.41,2a5.16,5.16,0,0,1-2,1.14,6.15,6.15,0,0,1-2.29.77,1,1,0,0,1-.49-.07l-.13-.09c-.06,0,0,.18,0,.09a1.93,1.93,0,0,0,0-.48.5.5,0,0,0-1,0Z" transform="translate(-0.78 1.5)"/><path d="M18.9,54.47a17.74,17.74,0,0,0,1.25,3.68.49.49,0,0,0,.68.18.51.51,0,0,0,.18-.68,16.65,16.65,0,0,1-1.15-3.45.5.5,0,0,0-.61-.35.52.52,0,0,0-.35.62Z" transform="translate(-0.78 1.5)"/><path d="M36.09,56.11a7.46,7.46,0,0,1-.55,1.3,10.39,10.39,0,0,1-.81,1.26.49.49,0,0,0,.17.68.51.51,0,0,0,.69-.18,9,9,0,0,0,1.46-2.8.5.5,0,0,0-.35-.61.5.5,0,0,0-.61.35Z" transform="translate(-0.78 1.5)"/><path class="cls-1" d="M35.16,59l-.8-.13a6.8,6.8,0,0,0-3,5.51,2.69,2.69,0,0,0,.61,2l.76,0c1.26-.18,2.12-1.32,2.82-2.38a4.33,4.33,0,0,0,.8-1.71,4.48,4.48,0,0,0-.83-2.76,1.15,1.15,0,0,0-.57-.6" transform="translate(-0.78 1.5)"/><path d="M35.29,58.53c-.41-.07-.91-.25-1.28,0a6.75,6.75,0,0,0-1.72,1.65,7.25,7.25,0,0,0-1.46,4.34,3,3,0,0,0,.76,2.19,1.84,1.84,0,0,0,1.35.09c1.53-.29,2.53-1.78,3.29-3a3.43,3.43,0,0,0,.48-2.83,7.46,7.46,0,0,0-.65-1.47,2,2,0,0,0-.89-1,.5.5,0,0,0-.68.18.49.49,0,0,0,.18.68c.36.16.54.69.71,1a3.92,3.92,0,0,1,.46,1.32,3.75,3.75,0,0,1-1,2.41,4.71,4.71,0,0,1-1.59,1.58,2.75,2.75,0,0,1-1.31.21l.36.14a2.34,2.34,0,0,1-.46-1.76,5.91,5.91,0,0,1,.39-1.9,6.25,6.25,0,0,1,2.38-3l-.38.06.79.12c.63.11.9-.86.27-1Z" transform="translate(-0.78 1.5)"/><path d="M47.08,57.2a11.22,11.22,0,0,1,2.35,3.23.5.5,0,0,0,.68.18.51.51,0,0,0,.18-.69,12.09,12.09,0,0,0-2.51-3.43.5.5,0,1,0-.7.71Z" transform="translate(-0.78 1.5)"/><path class="cls-1" d="M47.5,66.83c.11-.7.81-1.12,1.42-1.47,1.17-.66,2.42-1.61,2.48-3a3.41,3.41,0,0,0-.58-1.82,1,1,0,0,0-.61-.54l-.75.41A10.27,10.27,0,0,0,47.66,67" transform="translate(-0.78 1.5)"/><path d="M48,67c.11-.54.62-.83,1.07-1.09a10.88,10.88,0,0,0,1.51-1,3.25,3.25,0,0,0,1.25-3.23,3.7,3.7,0,0,0-.92-1.76,1,1,0,0,0-.81-.29,2.27,2.27,0,0,0-.41.21l-.43.23a1.85,1.85,0,0,0-.5.64A10.87,10.87,0,0,0,47.16,67c0,.64,1,.64,1,0a10,10,0,0,1,.66-4.27,11,11,0,0,1,1-1.89s-.2.13,0,0l.24-.13.4-.22-.38.05c.27.06.43.5.54.73a2.49,2.49,0,0,1,.28,1.14A2.44,2.44,0,0,1,50,64a11.75,11.75,0,0,1-1.68,1.13A2.49,2.49,0,0,0,47,66.7c-.13.63.84.9,1,.26Z" transform="translate(-0.78 1.5)"/><path d="M63.21,56.53A60.16,60.16,0,0,1,67,61.62c.35.54,1.22,0,.86-.5a61.42,61.42,0,0,0-3.92-5.3.49.49,0,0,0-.7,0,.5.5,0,0,0,0,.71Z" transform="translate(-0.78 1.5)"/><path class="cls-1" d="M67.43,61.71c-2.19.56-4.48,1.17-6.14,2.71-.24.24-.47.66-.2.87a.59.59,0,0,0,.32.09,15.15,15.15,0,0,0,6.67-.82.87.87,0,0,0,.47-.3.88.88,0,0,0,.09-.46,3.64,3.64,0,0,0-1.34-2.7" transform="translate(-0.78 1.5)"/><path d="M67.3,61.23a23.46,23.46,0,0,0-4,1.3,8.6,8.6,0,0,0-1.73,1c-.5.37-1.14.86-1.08,1.56s1,.78,1.62.82a15.64,15.64,0,0,0,4.66-.45c.35-.09.71-.2,1.06-.31a2.69,2.69,0,0,0,1-.48c.52-.51.3-1.5.09-2.1a4.23,4.23,0,0,0-1.26-1.85c-.49-.41-1.21.29-.71.71a3.52,3.52,0,0,1,.91,1.15,3.43,3.43,0,0,1,.21.64c0,.16.16.59.05.74s-.54.22-.7.27c-.31.1-.62.18-.93.26a15,15,0,0,1-1.77.34A16.53,16.53,0,0,1,63,65c-.3,0-.6,0-.9,0l-.42,0s-.17,0-.2,0-.1,0,0,0,0,.08.06,0a2.1,2.1,0,0,0,.24-.27,3.11,3.11,0,0,1,.28-.23,5.75,5.75,0,0,1,.64-.46,10.45,10.45,0,0,1,1.41-.73,24.86,24.86,0,0,1,3.5-1.08.5.5,0,0,0-.27-1Z" transform="translate(-0.78 1.5)"/><path class="cls-1" d="M68.18,61.29a9.8,9.8,0,0,1,7-.58c.41.12.89.37.91.8s-.67.77-1.2.82A16,16,0,0,1,67.08,61" transform="translate(-0.78 1.5)"/><path d="M68.44,61.72a9.44,9.44,0,0,1,4-.91,9,9,0,0,1,2,.22c.19,0,1.4.28,1,.62a1.34,1.34,0,0,1-.68.19c-.35,0-.71,0-1.06,0a15.63,15.63,0,0,1-6.46-1.28c-.58-.25-1.09.61-.5.87A16.66,16.66,0,0,0,71,62.7a13.12,13.12,0,0,0,4.24.08,1.67,1.67,0,0,0,1.21-.73,1.12,1.12,0,0,0-.32-1.41A3.74,3.74,0,0,0,74.46,60a10.79,10.79,0,0,0-2-.2,10.55,10.55,0,0,0-4.48,1c-.58.28-.07,1.14.51.86Z" transform="translate(-0.78 1.5)"/><path d="M58.2,56.75a11.59,11.59,0,0,1-2.11,4.47.51.51,0,0,0,0,.71.5.5,0,0,0,.7,0A13,13,0,0,0,59.17,57c.15-.63-.82-.9-1-.27Z" transform="translate(-0.78 1.5)"/><path class="cls-1" d="M56.21,62.27a5.28,5.28,0,0,0,1.95-1.07,1.94,1.94,0,0,1,2.08-.27,1.54,1.54,0,0,1,.48,1.67,4.52,4.52,0,0,1-1,1.56l-1.39,1.72c-.4.49-1,1-1.56.84-.44-.14-.67-.64-.82-1.08a4.42,4.42,0,0,1-.26-2.06A1.86,1.86,0,0,1,57,62.06" transform="translate(-0.78 1.5)"/><path d="M56.35,62.75a3.61,3.61,0,0,0,1.44-.68,4.8,4.8,0,0,1,1.28-.77.87.87,0,0,1,1.08.26,1.33,1.33,0,0,1,0,1.15,6,6,0,0,1-.95,1.36l-1.15,1.41c-.22.27-.61.82-1,.78s-.53-.66-.62-1c-.27-.88-.46-2.43.72-2.76a.5.5,0,0,0-.26-1,2.24,2.24,0,0,0-1.4,1.21,3.38,3.38,0,0,0-.2,2.06A4,4,0,0,0,56,66.74a1.4,1.4,0,0,0,1.79.31,5.56,5.56,0,0,0,1.48-1.5c.49-.6,1-1.19,1.45-1.83a2.87,2.87,0,0,0,.54-1.85,1.79,1.79,0,0,0-1.06-1.52A2.52,2.52,0,0,0,58,60.7a6.21,6.21,0,0,1-1.94,1.09.5.5,0,0,0-.35.61.52.52,0,0,0,.62.35Z" transform="translate(-0.78 1.5)"/><path d="M42.49,56.88l-.06.15s-.07.19,0,.07a2.72,2.72,0,0,0-.11.25c-.08.18-.17.36-.25.53-.18.35-.37.69-.58,1a.49.49,0,0,0,.18.68.5.5,0,0,0,.68-.18,13.63,13.63,0,0,0,1.13-2.26.52.52,0,0,0-.35-.62.53.53,0,0,0-.62.35Z" transform="translate(-0.78 1.5)"/><path class="cls-1" d="M41.68,59.79l.39-.28c.8.31,1,1.31,1.14,2.17a22.75,22.75,0,0,1,.09,3.87l-.69.11" transform="translate(-0.78 1.5)"/><path d="M41.93,60.22l.39-.28h-.51c.76.32.86,1.27.93,2a24.45,24.45,0,0,1,.06,3.63l.37-.48-.69.1a.5.5,0,0,0-.35.62.51.51,0,0,0,.61.35l.7-.1a.52.52,0,0,0,.36-.49,23.89,23.89,0,0,0,0-2.54,12.46,12.46,0,0,0-.25-2.2,2.71,2.71,0,0,0-.86-1.5c-.25-.19-.59-.4-.9-.23-.14.08-.26.19-.38.27-.53.37,0,1.24.5.87Z" transform="translate(-0.78 1.5)"/><path class="cls-1" d="M41.91,59.69c-.25,0-.38.29-.43.54a10,10,0,0,0-.22,3,3.41,3.41,0,0,0,1.47,2.51" transform="translate(-0.78 1.5)"/><path d="M41.91,59.19c-.75,0-.89.79-1,1.36a10.1,10.1,0,0,0-.19,2.32,4,4,0,0,0,1.75,3.29c.54.35,1-.52.5-.86a2.94,2.94,0,0,1-1.23-2.2,6.69,6.69,0,0,1,0-1.73c0-.26.08-.52.12-.78s.06-.25.08-.37.11,0-.09,0a.5.5,0,0,0,0-1Z" transform="translate(-0.78 1.5)"/><path d="M75.35,52.25a5.13,5.13,0,0,0,3.28-2,11.12,11.12,0,0,1,2.68-2.79.5.5,0,0,0-.5-.87,10,10,0,0,0-2.65,2.67,4.66,4.66,0,0,1-2.81,2,.51.51,0,0,0-.5.5.51.51,0,0,0,.5.5Z" transform="translate(-0.78 1.5)"/><path class="cls-1" d="M80.23,48.15c1.29.39,2.65-.35,3.72-1.18a4.42,4.42,0,0,0,1.26-1.29,3.51,3.51,0,0,0,.4-1.6,5.28,5.28,0,0,0-1.06-3.29l-.46-.1a5.05,5.05,0,0,0-2.51,2.71,14.67,14.67,0,0,0-.92,3.66" transform="translate(-0.78 1.5)"/><path d="M80.09,48.63a4.79,4.79,0,0,0,4.07-1.19,5.2,5.2,0,0,0,1.48-1.51,4.13,4.13,0,0,0,.47-2.1,5.71,5.71,0,0,0-.45-2.08c-.21-.52-.53-1.32-1.11-1.47a1.5,1.5,0,0,0-.59-.07,2.79,2.79,0,0,0-.91.5,5.57,5.57,0,0,0-1.35,1.43,11.62,11.62,0,0,0-1.52,4.78c-.11.63.86.9,1,.27.37-2.26.86-5,3.2-6.07l-.38.05.45.11-.29-.23c.91,1.22,1.5,3.28.49,4.63a6.07,6.07,0,0,1-1.87,1.51,3.11,3.11,0,0,1-2.38.47.5.5,0,0,0-.27,1Z" transform="translate(-0.78 1.5)"/><path d="M18.47,42.53a15.89,15.89,0,0,0,1.47-4c.23-1,.46-2.21,1.44-2.75.56-.31.06-1.17-.51-.86a4.29,4.29,0,0,0-1.81,3A17.12,17.12,0,0,1,17.61,42c-.31.57.56,1.07.86.5Z" transform="translate(-0.78 1.5)"/><path class="cls-1" d="M20.88,34.65A8.27,8.27,0,0,1,22.29,29a2.23,2.23,0,0,1,1.51-1.1,1.61,1.61,0,0,1,1.5,1,3.13,3.13,0,0,1,.15,1.87,5.87,5.87,0,0,1-1.71,3.15,9.72,9.72,0,0,0-1.85,1.83" transform="translate(-0.78 1.5)"/><path d="M21.38,34.65a8,8,0,0,1,.27-3.22,6.06,6.06,0,0,1,1.55-2.76.94.94,0,0,1,1.22-.13A1.62,1.62,0,0,1,25,30a5,5,0,0,1-1.08,2.94c-.73,1-1.84,1.51-2.49,2.53-.34.55.52,1,.87.51a6.22,6.22,0,0,1,1.36-1.35A7,7,0,0,0,25,33.2a5.57,5.57,0,0,0,1-3.72,2.2,2.2,0,0,0-2.56-2.06c-1.2.32-1.94,1.72-2.39,2.77a8.75,8.75,0,0,0-.66,4.46c.07.64,1.07.64,1,0Z" transform="translate(-0.78 1.5)"/><path d="M7.93,17.83a22,22,0,0,1-3.54-4.54.5.5,0,0,0-.87.51,23.63,23.63,0,0,0,3.7,4.74.5.5,0,0,0,.71-.71Z" transform="translate(-0.78 1.5)"/><path class="cls-1" d="M3.84,13.3c.16,0,.22-.22.26-.37l1.54-5.3a1.44,1.44,0,0,0,.07-.84,1.12,1.12,0,0,0-.93-.6,8.75,8.75,0,0,1-1.16-.14" transform="translate(-0.78 1.5)"/><path d="M4.1,13.74a1.39,1.39,0,0,0,.57-1l.39-1.36.81-2.79c.22-.74.67-1.72.07-2.4s-1.42-.47-2.18-.68a.5.5,0,0,0-.27,1,5.92,5.92,0,0,0,1,.13c.21,0,.55,0,.69.25s-.07.64-.13.86l-.29,1L4.17,10.9,3.86,12l-.16.55a1.35,1.35,0,0,1-.11.34c-.57.29-.07,1.16.51.87Z" transform="translate(-0.78 1.5)"/><path d="M7.18,42.47c-.62-.26-.85-1.12-1-1.71-.3-1.06-.6-2.12-.89-3.19a.5.5,0,0,0-1,.27c.33,1.15.62,2.32,1,3.47a3.08,3.08,0,0,0,1.64,2.13.5.5,0,0,0,.61-.35.52.52,0,0,0-.35-.62Z" transform="translate(-0.78 1.5)"/><path class="cls-1" d="M4.71,37.24a18.93,18.93,0,0,0,.51-5.86,3.53,3.53,0,0,0-.57-1.94,3.88,3.88,0,0,0-1.93-1.12" transform="translate(-0.78 1.5)"/><path d="M5.19,37.37a19.17,19.17,0,0,0,.53-6A4,4,0,0,0,5,29a4.53,4.53,0,0,0-2.11-1.19c-.61-.22-.87.75-.26,1a3.22,3.22,0,0,1,1.72,1,4.22,4.22,0,0,1,.44,2.25,18.2,18.2,0,0,1-.53,5,.5.5,0,0,0,1,.27Z" transform="translate(-0.78 1.5)"/><path d="M6.43,54.75l-.09,0s0,0,0,0,0,0,0,0l-.07-.07c.06.07,0-.09,0-.1l-.07-.14s0-.06,0,0a.36.36,0,0,0,0-.09L6,54l-.19-.49-.74-2a.51.51,0,0,0-.62-.35.5.5,0,0,0-.35.61L5,54.05c.23.64.45,1.49,1.21,1.66a.5.5,0,0,0,.62-.34.51.51,0,0,0-.35-.62Z" transform="translate(-0.78 1.5)"/><path class="cls-1" d="M4.38,51.26c-.07-1.22.3-2.44.07-3.64a6.72,6.72,0,0,0-1.93-3.18" transform="translate(-0.78 1.5)"/><path d="M4.88,51.26c-.07-1.37.36-2.74,0-4.09a7.81,7.81,0,0,0-2-3.09c-.44-.47-1.15.24-.71.71a6.48,6.48,0,0,1,1.75,2.75c.3,1.21-.1,2.49,0,3.72,0,.64,1,.64,1,0Z" transform="translate(-0.78 1.5)"/><path d="M19.41,28.18a27.37,27.37,0,0,0,2.65-5,.5.5,0,0,0-.35-.61.5.5,0,0,0-.61.34,26.1,26.1,0,0,1-2.55,4.78.5.5,0,1,0,.86.51Z" transform="translate(-0.78 1.5)"/><path class="cls-1" d="M21.86,22.69a3,3,0,0,1-1.34-2.61,5.47,5.47,0,0,1,1-2.87c.6-.95,1.58-1.87,2.69-1.71" transform="translate(-0.78 1.5)"/><path d="M22.11,22.25c-1.23-.78-1.26-2.41-.79-3.65s1.44-2.75,2.85-2.6a.5.5,0,0,0,0-1c-1.89-.21-3.23,1.8-3.81,3.34a3.92,3.92,0,0,0,1.24,4.78c.55.34,1-.52.51-.87Z" transform="translate(-0.78 1.5)"/><path class="cls-1" d="M24,15.48l.64,0c.42,0,.68.45.81.86a8.43,8.43,0,0,1,0,4.9,2.67,2.67,0,0,1-.71,1.27,3.35,3.35,0,0,1-2.54.52l-.56-.56" transform="translate(-0.78 1.5)"/><path d="M24,16c.19,0,.41,0,.6,0s.32.33.39.56a8.1,8.1,0,0,1,.29,2.94A7.81,7.81,0,0,1,25,20.93a2.71,2.71,0,0,1-.55,1.16c-.56.6-1.54.51-2.28.46l.36.15-.57-.56a.5.5,0,0,0-.7.7c.16.17.32.34.49.5a1.49,1.49,0,0,0,1.1.24,3,3,0,0,0,2.54-1.07,6.41,6.41,0,0,0,.89-3.22A7.83,7.83,0,0,0,25.79,16a1.39,1.39,0,0,0-1-1,7,7,0,0,0-.8,0c-.64,0-.64,1,0,1Z" transform="translate(-0.78 1.5)"/><path d="M6.78,25.85l-.09,0s.14,0,.07,0,.06,0,0,0l0,0s-.06-.06-.06-.06a.23.23,0,0,1-.07-.07.27.27,0,0,1-.07-.08s0,0,0,0c-.19-.31-.4-.62-.61-.93L4.68,22.83A.51.51,0,0,0,4,22.65a.51.51,0,0,0-.18.69l1.39,2.13a7.61,7.61,0,0,0,.69,1A1.09,1.09,0,0,0,7,26.82a.52.52,0,0,0,.35-.62.5.5,0,0,0-.61-.35Z" transform="translate(-0.78 1.5)"/><path class="cls-1" d="M4.62,22.8l0-2.14a5.8,5.8,0,0,0-.5-3A3,3,0,0,0,1.7,16.15" transform="translate(-0.78 1.5)"/><path d="M5.12,22.8c0-.83,0-1.65,0-2.47A6.79,6.79,0,0,0,4.88,18,3.52,3.52,0,0,0,1.7,15.65c-.64,0-.64,1,0,1A2.53,2.53,0,0,1,4,18.73a7.86,7.86,0,0,1,.12,1.88l0,2.19a.5.5,0,0,0,1,0Z" transform="translate(-0.78 1.5)"/></g><g id="Слой_2" data-name="Слой 2"><path class="cls-3" d="M29.75,19.3c-2.15,5.45-4.21,11.31-3.05,17.05a22.77,22.77,0,0,0,4.17,8.77c2.29,3.14,5.14,6,8.75,7.45,4.52,1.79,9.61,1.09,14.34,0q3-.72,6-1.65a7.63,7.63,0,0,0,2.31-1,6.54,6.54,0,0,0,1.68-2c2-3.24,2.93-7,3.85-10.67a29.65,29.65,0,0,0,.75-3.61A14.78,14.78,0,0,0,65.4,22.66" transform="translate(-0.78 1.5)"/><path d="M29.26,19.17c-2.34,6-4.61,12.58-2.61,19A25.73,25.73,0,0,0,30.92,46a23.22,23.22,0,0,0,6,5.77c5.42,3.38,11.93,2.51,17.82,1.07,1.64-.4,3.27-.84,4.88-1.34a7.6,7.6,0,0,0,3.8-2c2-2.26,3-5.41,3.83-8.23q.74-2.55,1.33-5.13a17.75,17.75,0,0,0,.54-5,15.54,15.54,0,0,0-3.41-8.84c-.41-.5-1.11.21-.71.71a14.29,14.29,0,0,1,3.08,7.62c.26,2.94-.58,5.79-1.32,8.61a32,32,0,0,1-3.13,8.2,5.74,5.74,0,0,1-3.11,2.73c-1.44.51-2.93.91-4.41,1.3-5.56,1.47-12,2.86-17.38.17a19.66,19.66,0,0,1-6.13-5,27.7,27.7,0,0,1-4.53-7.27c-2.69-6.66-.38-13.56,2.11-19.9.23-.6-.73-.86-1-.26Z" transform="translate(-0.78 1.5)"/><path class="cls-4" d="M52.25,48.45a6.32,6.32,0,0,0,4.58,3.17,1.48,1.48,0,0,0,.75-.1,1.51,1.51,0,0,0,.63-1.64A5.52,5.52,0,0,0,58,48c-.49-1.39-2.48-3.18-5.47-4.52" transform="translate(-0.78 1.5)"/><path d="M51.82,48.7a7.89,7.89,0,0,0,2.91,2.8c1,.53,2.87,1.14,3.66,0a2.57,2.57,0,0,0,.32-1.61,7.46,7.46,0,0,0-.17-1.63,5.34,5.34,0,0,0-1.69-2.54,15,15,0,0,0-4.1-2.61c-.58-.27-1.09.6-.5.86a15.88,15.88,0,0,1,3.21,1.88,6.69,6.69,0,0,1,1.85,2,5.23,5.23,0,0,1,.42,2.32c0,.47-.09,1-.64,1a3.61,3.61,0,0,1-1.58-.35,6.57,6.57,0,0,1-2.82-2.58c-.35-.54-1.22,0-.87.51Z" transform="translate(-0.78 1.5)"/><path class="cls-5" d="M44.69,50.57A2.32,2.32,0,0,0,45.77,52a6.43,6.43,0,0,0,1.65.67,2.12,2.12,0,0,0,1.31.13c.46-.15.48-.87.49-1,.16-1.75-4.1-3.9-4.72-4.21" transform="translate(-0.78 1.5)"/><path d="M44.2,50.71c.38,1.43,1.81,2,3.09,2.4.61.19,1.46.39,2-.12a1.83,1.83,0,0,0,.45-1.25,2.75,2.75,0,0,0-1-2,12,12,0,0,0-2.21-1.68c-.58-.36-1.18-.69-1.79-1s-1.08.58-.5.86a18,18,0,0,1,3.1,1.9,6.85,6.85,0,0,1,.84.77,4.12,4.12,0,0,1,.26.32l.11.18.06.12s.06.14,0,0a1.21,1.21,0,0,1,.05.18s0,.2,0,.08a2.26,2.26,0,0,1,0,.37c0,.09,0-.12,0,0a.44.44,0,0,1,0,.1.61.61,0,0,1-.06.19s-.07.07,0,.05a.85.85,0,0,1-.42,0,5.36,5.36,0,0,1-1-.27,6.93,6.93,0,0,1-.93-.37,2,2,0,0,1-1.1-1.22.5.5,0,0,0-1,.27Z" transform="translate(-0.78 1.5)"/><path class="cls-6" d="M45.94,47.53a8.73,8.73,0,0,0,1.64,2.61,8.64,8.64,0,0,0,3,1.64l1.34.52a6,6,0,0,0,.36-3.51C51.66,46.1,49,44,45.5,43.5" transform="translate(-0.78 1.5)"/><path d="M45.51,47.78A7.76,7.76,0,0,0,47.9,51a17.22,17.22,0,0,0,3.86,1.74.49.49,0,0,0,.61-.34,6.25,6.25,0,0,0-.9-6.33A9.1,9.1,0,0,0,45.63,43c-.63-.09-.9.87-.26,1a8.38,8.38,0,0,1,5.25,2.66,5.3,5.3,0,0,1,.79,5.53l.61-.35a17.71,17.71,0,0,1-3.5-1.56,6.85,6.85,0,0,1-2.15-3c-.27-.59-1.14-.08-.86.5Z" transform="translate(-0.78 1.5)"/><path class="cls-7" d="M39.54,47.18a2.1,2.1,0,0,0,.66.83c1.07,1,1.62,2.51,2.7,3.54a1.27,1.27,0,0,0,.71.4.92.92,0,0,0,.61-.2,2.72,2.72,0,0,0,.85-1.64c.22-.86.43-1.54.46-1.83.15-1.47-2.64-4-7-5.78" transform="translate(-0.78 1.5)"/><path d="M39.05,47.31c.3.75,1,1.21,1.48,1.85s.91,1.42,1.42,2.08,1.11,1.34,1.95,1.18a2.17,2.17,0,0,0,1.5-1.65A15.45,15.45,0,0,0,46,48.55a2.1,2.1,0,0,0-.12-1.19,6.59,6.59,0,0,0-2.18-2.51A21.3,21.3,0,0,0,38.63,42c-.59-.25-.85.72-.26,1a22.55,22.55,0,0,1,3.86,2,9.17,9.17,0,0,1,2.34,2.09,2.34,2.34,0,0,1,.44.84,2.1,2.1,0,0,1-.14,1,10.25,10.25,0,0,1-.58,2c-.14.27-.4.64-.75.52s-.55-.48-.74-.71c-.49-.6-.87-1.29-1.32-1.92a9.11,9.11,0,0,0-.72-.92c-.24-.25-.61-.48-.74-.82-.24-.59-1.2-.33-1,.27Z" transform="translate(-0.78 1.5)"/><path class="cls-8" d="M47.86,43.43a9.52,9.52,0,0,0,1.44,3.26,5.12,5.12,0,0,0,1.3,1.58,1.57,1.57,0,0,0,2.63-1,3.26,3.26,0,0,0,0-1.38c-.22-1.09-1.95-3.19-4.76-5.4" transform="translate(-0.78 1.5)"/><path d="M47.38,43.56a10.66,10.66,0,0,0,1.91,4c.74,1,2.12,2.06,3.43,1.3a2.93,2.93,0,0,0,1-3.14,5.68,5.68,0,0,0-1.33-2.25,23.11,23.11,0,0,0-3.56-3.36c-.5-.4-1.21.3-.7.7A27.78,27.78,0,0,1,51,43.42a10.25,10.25,0,0,1,1.56,2,2.54,2.54,0,0,1,.1,2,1,1,0,0,1-1.21.62,2.34,2.34,0,0,1-1.3-1,10.06,10.06,0,0,1-1.81-3.79c-.12-.64-1.08-.37-1,.26Z" transform="translate(-0.78 1.5)"/><path class="cls-9" d="M41.65,43.7a7.42,7.42,0,0,0,2.48,3.09,2.94,2.94,0,0,0,1.34.59,1.33,1.33,0,0,0,1.28-.55A2.74,2.74,0,0,0,47,45.77a7.24,7.24,0,0,1,.78-2.08c.16-.68-.47-1.9-4.27-4.19" transform="translate(-0.78 1.5)"/><path d="M41.22,44a7.71,7.71,0,0,0,3,3.49,2.43,2.43,0,0,0,2.18.3A1.86,1.86,0,0,0,47.46,46a4.92,4.92,0,0,1,.59-1.7,1.76,1.76,0,0,0,.24-.9,2.83,2.83,0,0,0-.88-1.64,16.73,16.73,0,0,0-3.66-2.7c-.55-.34-1,.53-.5.86a19.52,19.52,0,0,1,3,2.11,6.51,6.51,0,0,1,.69.71,2.36,2.36,0,0,1,.2.31,1.09,1.09,0,0,1,.08.15s0,0,0,.07,0,.27,0,.12c0,.09,0,.26,0,.12a5.74,5.74,0,0,1-.46,1,4.38,4.38,0,0,0-.27.82c-.07.34-.06.71-.16,1-.17.62-.89.6-1.38.38a6.43,6.43,0,0,1-2.94-3.29c-.26-.59-1.12-.08-.86.5Z" transform="translate(-0.78 1.5)"/><path class="cls-10" d="M32,46c1.33.55,1.86,1.88,2.59,3a8.38,8.38,0,0,0,2,2.08,1.4,1.4,0,0,0,.43.24,1.47,1.47,0,0,0,1.32-.5,3,3,0,0,0,1.19-2.11,4.66,4.66,0,0,0-.08-1.92c-.5-1.71-3.69-3.14-8-3.27" transform="translate(-0.78 1.5)"/><path d="M31.75,46.43c1.48.65,2,2.38,3,3.55a8.18,8.18,0,0,0,1,1,3.27,3.27,0,0,0,1.21.81c.92.26,1.76-.49,2.31-1.14A3.38,3.38,0,0,0,40,48.7a4.72,4.72,0,0,0-.18-2.27,4.62,4.62,0,0,0-2.57-2.26A15.65,15.65,0,0,0,31.5,43c-.64,0-.64,1,0,1a15.58,15.58,0,0,1,4.64.79,5.28,5.28,0,0,1,2.58,1.62A2.59,2.59,0,0,1,39.09,48a2.92,2.92,0,0,1-.34,1.54c-.32.52-1.14,1.57-1.81,1.13A7.16,7.16,0,0,1,35.21,49c-.9-1.23-1.46-2.77-3-3.43-.58-.26-1.09.6-.5.86Z" transform="translate(-0.78 1.5)"/><path class="cls-11" d="M34.53,41a4.79,4.79,0,0,0,.6,4.73,1.59,1.59,0,0,0,1.16.72,1.88,1.88,0,0,0,.65-.16,19.1,19.1,0,0,0,2-.75c.88-.55.55-3.44-.79-6.84" transform="translate(-0.78 1.5)"/><path d="M34.05,40.83a5.2,5.2,0,0,0,0,3.86c.47,1.22,1.46,2.61,2.94,2.1.55-.19,1.1-.4,1.65-.6a2,2,0,0,0,.81-.47,3.33,3.33,0,0,0,.43-2.51,18.45,18.45,0,0,0-1.26-4.67c-.23-.59-1.2-.34-1,.26a20.94,20.94,0,0,1,1.09,3.62,5.14,5.14,0,0,1,.08,2.37.56.56,0,0,1-.12.26s0,0-.12.08-.56.21-.84.31l-.76.28a1.28,1.28,0,0,1-.87.16,2.43,2.43,0,0,1-1-1.25A4.34,4.34,0,0,1,35,41.1a.5.5,0,0,0-.35-.62.52.52,0,0,0-.61.35Z" transform="translate(-0.78 1.5)"/><path class="cls-12" d="M53.66,45.11a5.06,5.06,0,0,0,2,2.44,2.34,2.34,0,0,0,2.91-.35,3.6,3.6,0,0,0,.53-1.12c1.23-3.92,1.14-4.1,1-4.53-.59-1.41-3.73-2-7.53-1" transform="translate(-0.78 1.5)"/><path d="M53.23,45.36c.77,1.67,2.19,3.34,4.24,3a2.5,2.5,0,0,0,1.92-1.66c.34-.88.59-1.82.84-2.73a5,5,0,0,0,.37-2.28,2.7,2.7,0,0,0-1.88-1.73,11.52,11.52,0,0,0-6.35.08c-.63.15-.36,1.11.26,1a12.09,12.09,0,0,1,5-.29,3.64,3.64,0,0,1,1.53.6,1.34,1.34,0,0,1,.32.36.47.47,0,0,1,0,.1c0-.09,0,0,0,0l0,.09c0,.07,0,.25,0,.06v.25a.77.77,0,0,1,0,.15c0-.15,0,.06,0,.09,0,.2-.09.39-.13.58-.16.62-.34,1.23-.53,1.83-.13.43-.25.86-.39,1.28a2,2,0,0,1-.63,1,2,2,0,0,1-2.14,0,4.85,4.85,0,0,1-1.69-2.2c-.26-.59-1.13-.08-.86.5Z" transform="translate(-0.78 1.5)"/><path class="cls-13" d="M50.71,41.47a6.18,6.18,0,0,0,1.33,3c.3.42.68.88,1.19.87a1.08,1.08,0,0,0,.84-.53,3.27,3.27,0,0,0,.36-1c.38-1.52.87-2.32.8-3.17-.16-2-4.43-3.12-4.73-3.2" transform="translate(-0.78 1.5)"/><path d="M50.21,41.47A5.37,5.37,0,0,0,51,43.84a4.93,4.93,0,0,0,1.46,1.8,1.44,1.44,0,0,0,2-.46,8.58,8.58,0,0,0,.83-2.34c.34-1,.78-2.16.12-3.17A5.5,5.5,0,0,0,53,37.85,13.64,13.64,0,0,0,50.63,37a.5.5,0,0,0-.26,1,9.76,9.76,0,0,1,3.57,1.6,1.64,1.64,0,0,1,.74,1.78c-.13.53-.34,1-.5,1.57-.11.33-.19.66-.28,1a1.42,1.42,0,0,1-.45.85c-.56.38-1.12-.73-1.35-1.09a4.79,4.79,0,0,1-.89-2.21c0-.64-1.05-.65-1,0Z" transform="translate(-0.78 1.5)"/><path class="cls-14" d="M44.86,39.36A10.3,10.3,0,0,0,45.79,42a3,3,0,0,0,.53.79,3.66,3.66,0,0,0,1.41.77c.51.19,1.15.35,1.55,0a1.42,1.42,0,0,0,.32-.62c.46-1.34.62-1.67.67-2,.17-1.09-1.75-3-4.77-4.44" transform="translate(-0.78 1.5)"/><path d="M44.37,39.49a11.64,11.64,0,0,0,.77,2.29,3.73,3.73,0,0,0,1.28,1.72,4.89,4.89,0,0,0,2,.74A1.43,1.43,0,0,0,50,43.33c.23-.55.4-1.13.6-1.69a2.62,2.62,0,0,0,.2-.79,3.28,3.28,0,0,0-1.19-2.2,13.36,13.36,0,0,0-3.84-2.58c-.58-.28-1.08.59-.5.86a14.87,14.87,0,0,1,3,1.86,4.56,4.56,0,0,1,1.46,1.74c0,.06,0,.12,0,.18s0,0,0,0v.09c0,.09,0,.07,0,0a.74.74,0,0,1,0,.14,7.75,7.75,0,0,1-.28.81c-.09.24-.17.48-.25.73s-.13.57-.35.68c-.38.21-1.12-.17-1.48-.33a2.67,2.67,0,0,1-1.33-1.49,10.21,10.21,0,0,1-.71-2.17c-.14-.63-1.1-.36-1,.27Z" transform="translate(-0.78 1.5)"/><path class="cls-15" d="M38.7,38.82a6.58,6.58,0,0,0,1.37,4.38,1.46,1.46,0,0,0,.8.61,1.07,1.07,0,0,0,.83-.19,3,3,0,0,0,.87-1c1.14-1.8,1.73-2.46,1.8-3.29.14-1.64-2.69-3.73-6.87-4.82" transform="translate(-0.78 1.5)"/><path d="M38.2,38.82a6.91,6.91,0,0,0,1.71,5,1.59,1.59,0,0,0,2.27.11,9.09,9.09,0,0,0,1.52-2.1c.57-.86,1.33-1.83,1.14-2.94a4.33,4.33,0,0,0-1.94-2.51A15.38,15.38,0,0,0,37.63,34a.5.5,0,0,0-.26,1,16.34,16.34,0,0,1,4,1.59,5.86,5.86,0,0,1,2.24,1.92,1.56,1.56,0,0,1-.13,1.73c-.3.52-.64,1-1,1.5s-.78,1.58-1.46,1.61c-.41,0-.71-.53-.91-.83a5.74,5.74,0,0,1-.58-1.13,6.32,6.32,0,0,1-.4-2.55c0-.64-1-.64-1,0Z" transform="translate(-0.78 1.5)"/><path class="cls-16" d="M32.81,37.71A4,4,0,0,0,33,39.52a3,3,0,0,0,1,1.62A2.11,2.11,0,0,0,36.57,41a3.46,3.46,0,0,0,1.08-1.61c.31-1.55-1.35-3.56-4.15-4.88" transform="translate(-0.78 1.5)"/><path d="M32.33,37.58a4.39,4.39,0,0,0,1.05,3.71,2.6,2.6,0,0,0,3.15.35,3.36,3.36,0,0,0,1.65-2.75,4.11,4.11,0,0,0-1.11-2.42,9.75,9.75,0,0,0-3.32-2.4c-.58-.28-1.08.59-.5.86a10.12,10.12,0,0,1,2.5,1.62,4.44,4.44,0,0,1,1.32,1.8,1.73,1.73,0,0,1-.41,1.82,2.15,2.15,0,0,1-1.1.8,1.56,1.56,0,0,1-1.12-.12,3.07,3.07,0,0,1-1.15-3,.52.52,0,0,0-.35-.62.49.49,0,0,0-.61.35Z" transform="translate(-0.78 1.5)"/><path class="cls-17" d="M60.35,43.43A10.31,10.31,0,0,0,59,45.63a2.91,2.91,0,0,0-.26,1.25,1.73,1.73,0,0,0,.47,1.21,1.57,1.57,0,0,0,1.24.32c1.8,0,2.61,1.35,3.25.91.35-.24.64-1,.18-3.64" transform="translate(-0.78 1.5)"/><path d="M60,43.08a7,7,0,0,0-1.74,3.5,2.34,2.34,0,0,0,.6,1.86,2.41,2.41,0,0,0,1.78.47,3.22,3.22,0,0,1,1.41.43,5.21,5.21,0,0,0,1.06.52A1.13,1.13,0,0,0,64.5,49a3.87,3.87,0,0,0,.13-1.22,16.1,16.1,0,0,0-.25-2.2.51.51,0,0,0-.62-.35.51.51,0,0,0-.35.61,13.21,13.21,0,0,1,.21,1.66c0,.19,0,.38,0,.57s0,.16,0,.25a.31.31,0,0,0,0,.1c0,.15,0-.1,0,0a2.81,2.81,0,0,1-.08.31c0,.12,0-.07,0,0s0,.08-.06.11.07-.08,0,0,0,0,0,0l0,0,0,0s.07,0,0,0,.09,0,0,0,0,0,0,0l-.18,0c.1,0-.07,0-.09,0l-.44-.25a5.17,5.17,0,0,0-1.21-.51,3.7,3.7,0,0,0-.74-.13c-.25,0-.51,0-.77,0a.89.89,0,0,1-.74-.9,2.83,2.83,0,0,1,.38-1.55,10.11,10.11,0,0,1,1.06-1.68.5.5,0,0,0,0-.7.48.48,0,0,0-.7,0Z" transform="translate(-0.78 1.5)"/><path class="cls-17" d="M63.9,39.51c-1.76.51-2.91,1.83-2.85,3,0,.76.76,1.4,2.21,2.67a1.55,1.55,0,0,0,1,.49,1.24,1.24,0,0,0,1-.85,3.56,3.56,0,0,0,.27-1.38A5.44,5.44,0,0,1,67,40" transform="translate(-0.78 1.5)"/><path d="M63.77,39a4.73,4.73,0,0,0-2.91,2.18,2.62,2.62,0,0,0-.29,1.55,2.4,2.4,0,0,0,.55,1.09,10.72,10.72,0,0,0,1.22,1.21,3.33,3.33,0,0,0,1.86,1.13c1.4.06,1.9-1.65,1.89-2.77a5.54,5.54,0,0,1,1.34-3.15.49.49,0,0,0-.18-.68.5.5,0,0,0-.68.18,7,7,0,0,0-1.39,2.78c-.16.76,0,1.68-.46,2.35-.38.51-.83.19-1.2-.13s-.86-.75-1.26-1.15a2.78,2.78,0,0,1-.66-.86c0,.07,0-.11,0-.12a.44.44,0,0,0,0-.1c0,.09,0,0,0,0a1.44,1.44,0,0,1,.07-.54A3.43,3.43,0,0,1,64,40a.5.5,0,0,0-.26-1Z" transform="translate(-0.78 1.5)"/><path class="cls-17" d="M62.54,35.83a1,1,0,0,0,.1.67L64,39.82A2.1,2.1,0,0,0,64.78,41a1.26,1.26,0,0,0,1-.14,2.5,2.5,0,0,0,.91-.69A2.55,2.55,0,0,0,67,38.89c0-1.19-1.38-3.1-3.53-4.89" transform="translate(-0.78 1.5)"/><path d="M62.06,35.7a3.44,3.44,0,0,0,.51,1.95l.82,2a3.57,3.57,0,0,0,.88,1.55A1.54,1.54,0,0,0,66,41.3a2.55,2.55,0,0,0,1.16-.91,2.74,2.74,0,0,0,.31-1.14,4,4,0,0,0-.79-2.51,14.48,14.48,0,0,0-2.86-3.09c-.49-.41-1.2.29-.71.7a16.06,16.06,0,0,1,2.22,2.22,5.5,5.5,0,0,1,1.09,1.89,2.13,2.13,0,0,1,0,.91,2.54,2.54,0,0,1-.14.47c0-.05,0,.08-.06.09a1.89,1.89,0,0,1-1.15.63c-.4,0-.6-.71-.72-1l-.72-1.79-.38-1c-.09-.22-.33-.6-.28-.85.13-.62-.83-.89-1-.26Z" transform="translate(-0.78 1.5)"/><path class="cls-18" d="M55.34,40.06c1.34.93,2.38,1.6,2.89,1.89a1.59,1.59,0,0,0,.67.23,2.15,2.15,0,0,0,.83-.12,3.49,3.49,0,0,0,1.7-.86A3.11,3.11,0,0,0,62,40c.51-1.56.77-2.34.63-2.79-.38-1.17-3.73-1.46-8.16-.71" transform="translate(-0.78 1.5)"/><path d="M55.09,40.49c.73.5,1.46,1,2.21,1.48a3.32,3.32,0,0,0,1.74.72,4.09,4.09,0,0,0,1.19-.26,4.15,4.15,0,0,0,1.22-.58,3.27,3.27,0,0,0,1.06-1.72A13.71,13.71,0,0,0,63.15,38,1.62,1.62,0,0,0,63,36.73c-.57-.83-1.81-1-2.72-1.08a22.31,22.31,0,0,0-5.88.37c-.64.1-.37,1.07.26,1a25.13,25.13,0,0,1,4.66-.39,5.19,5.19,0,0,1,2.67.53.33.33,0,0,1,.11.09l.07.07c0,.06,0-.06,0,0s.06.08.06.22a5.19,5.19,0,0,1-.34,1.41,6.3,6.3,0,0,1-.72,1.85,3.16,3.16,0,0,1-1.82.88,2.11,2.11,0,0,1-1.56-.57c-.73-.47-1.45-1-2.17-1.46-.52-.37-1,.5-.5.87Z" transform="translate(-0.78 1.5)"/><path class="cls-19" d="M59,33c-.18,0-.2.26-.13.43.52,1.32,1.15,2.76,2.44,3.38a1,1,0,0,0,.91.07,1,1,0,0,0,.4-.59,8,8,0,0,1,.61-1.81,3.58,3.58,0,0,0,.25-.42,1.55,1.55,0,0,0,.07-.61c0-.73,0-1.2,0-1.38-.14-.76-2.62-1.46-6-1.52" transform="translate(-0.78 1.5)"/><path d="M59,32.45a.69.69,0,0,0-.67.71,2.52,2.52,0,0,0,.31,1,8.07,8.07,0,0,0,1,1.85,3.94,3.94,0,0,0,1.62,1.32A1.32,1.32,0,0,0,63,36.46c.12-.33.19-.68.28-1a3.85,3.85,0,0,1,.2-.57c.09-.19.23-.34.32-.52A2.05,2.05,0,0,0,64,33.28c0-.35,0-.69,0-1a1.25,1.25,0,0,0-.43-1,3.66,3.66,0,0,0-1.2-.6A15.93,15.93,0,0,0,57.5,30a.5.5,0,0,0,0,1,18.69,18.69,0,0,1,3.65.38,7,7,0,0,1,1.21.36,2.05,2.05,0,0,1,.39.2s.16.11.09,0a.93.93,0,0,1,.14.14c-.08-.09,0,0,0,0,0-.17,0,.09,0-.07,0,.19,0,.39,0,.58s0,.59,0,.89-.22.52-.36.8a15.43,15.43,0,0,0-.55,1.75c-.08.2-.15.34-.38.29A1.72,1.72,0,0,1,61,36,4.13,4.13,0,0,1,60,34.68c-.15-.28-.29-.57-.41-.86l-.15-.36a2,2,0,0,0-.09-.22c-.05-.08,0-.09,0,0l-.17.18,0,0-.25.07H59c.63-.05.64-1.05,0-1Z" transform="translate(-0.78 1.5)"/><path class="cls-20" d="M55.65,35a7.74,7.74,0,0,0,1.81,2.7c.81.77,1.17.74,1.33.69.48-.15.65-.74.7-1.24a8.47,8.47,0,0,0-.57-3.86c-1.17-2-3.72-3.37-4.42-2.79C54,30.92,54.55,32.28,55.65,35Z" transform="translate(-0.78 1.5)"/><path d="M55.17,35.14a8.48,8.48,0,0,0,1.12,2,4.27,4.27,0,0,0,2.1,1.75c.77.18,1.34-.5,1.51-1.19a7.2,7.2,0,0,0-.07-3.1A6.48,6.48,0,0,0,59.35,33a6.22,6.22,0,0,0-1.75-2c-.75-.59-2.8-1.94-3.6-.72A2.1,2.1,0,0,0,54,32c.31,1.07.77,2.09,1.18,3.12.24.58,1.21.33,1-.27-.34-.82-.68-1.63-1-2.46A5,5,0,0,1,54.81,31c0-.13,0,0,0-.13s0,0,0,0,0,0,0,0a.85.85,0,0,1,.25,0,3.51,3.51,0,0,1,1.41.6,6.4,6.4,0,0,1,1.6,1.47,3.71,3.71,0,0,1,.28.41s.19.35.09.11a5.17,5.17,0,0,1,.18.51A8,8,0,0,1,59,36c0,.56.14,1.56-.4,1.89.06,0,.06,0-.06,0l-.31-.18a5.52,5.52,0,0,1-1.08-1.08,7.72,7.72,0,0,1-1-1.76.53.53,0,0,0-.62-.35A.51.51,0,0,0,55.17,35.14Z" transform="translate(-0.78 1.5)"/><path class="cls-21" d="M51.38,36.1a3.46,3.46,0,0,0,.67,1.8,12.29,12.29,0,0,0,1.76,2.45,1,1,0,0,0,.69.35.64.64,0,0,0,.44-.23,1.86,1.86,0,0,0,.24-1.65,1.91,1.91,0,0,1-.06-.58,2.43,2.43,0,0,1,.17-.54,5.26,5.26,0,0,0,.17-2.61c-.35-1-2-1.69-4-1.59" transform="translate(-0.78 1.5)"/><path d="M50.88,36.1a3.9,3.9,0,0,0,.67,1.95,21.15,21.15,0,0,0,1.17,1.79c.38.5.85,1.16,1.48,1.32a1.27,1.27,0,0,0,1.45-.93,4,4,0,0,0,0-1.76,2.19,2.19,0,0,1,.2-.79A4.37,4.37,0,0,0,56,37a3.07,3.07,0,0,0-.62-2.91A5.39,5.39,0,0,0,51.5,33c-.64,0-.64,1,0,1a5.16,5.16,0,0,1,2.79.53,1.56,1.56,0,0,1,.69.68,2.51,2.51,0,0,1,.07,1.09,5.85,5.85,0,0,1-.19,1.11c-.06.2-.15.39-.2.58a2,2,0,0,0,0,.85c.07.37.21.93-.06,1.25s-.25.07-.4-.06a5.24,5.24,0,0,1-.59-.65,13.77,13.77,0,0,1-1-1.57,3.49,3.49,0,0,1-.7-1.71.5.5,0,0,0-1,0Z" transform="translate(-0.78 1.5)"/><path class="cls-22" d="M47,37a1,1,0,0,0,.21.65,11.81,11.81,0,0,0,3.33,3.53.28.28,0,0,0,.19.07c.09,0,.14-.1.17-.17,1.35-2.8.7-4.24.7-4.24A4.21,4.21,0,0,0,48.5,34.5" transform="translate(-0.78 1.5)"/><path d="M46.47,37a3.61,3.61,0,0,0,1.05,2A11.6,11.6,0,0,0,49,40.59c.28.25.58.49.88.71s.68.54,1.09.32.44-.6.58-.92A11.07,11.07,0,0,0,52,39.6a5.54,5.54,0,0,0,.17-2.68A3.66,3.66,0,0,0,50.79,35a4.79,4.79,0,0,0-2.16-1,.51.51,0,0,0-.61.35.5.5,0,0,0,.35.61,4.16,4.16,0,0,1,1.2.41,3.6,3.6,0,0,1,.94.7,2.63,2.63,0,0,1,.4.53,3.47,3.47,0,0,1,.18.33c.11.21,0,0,0,0a2.44,2.44,0,0,1,.13,1A5,5,0,0,1,51,39.19c-.07.27-.16.54-.25.8s-.23.73-.33.78l.39-.05a1.35,1.35,0,0,1-.51-.34c-.18-.13-.35-.28-.52-.42s-.62-.58-.91-.9a10.45,10.45,0,0,1-.79-1c-.22-.29-.65-.76-.64-1.14,0-.64-1-.64-1,0Z" transform="translate(-0.78 1.5)"/><path class="cls-23" d="M42.83,33.56a33.75,33.75,0,0,0,1,4.08,3.52,3.52,0,0,0,.37.84,3.23,3.23,0,0,0,1.74,1,.42.42,0,0,0,.29,0,.41.41,0,0,0,.19-.33,5.1,5.1,0,0,0,.12-1.8,39.13,39.13,0,0,0-2-5.88" transform="translate(-0.78 1.5)"/><path d="M42.35,33.7A29.83,29.83,0,0,0,43.42,38a2.6,2.6,0,0,0,1.11,1.47,3.62,3.62,0,0,0,1.62.6c.74,0,.8-.86.87-1.41a5,5,0,0,0,0-1.16,9.8,9.8,0,0,0-.51-1.93c-.46-1.41-1-2.79-1.57-4.16a.51.51,0,0,0-.61-.35.49.49,0,0,0-.35.61,41.36,41.36,0,0,1,2,5.5c0,.11.05.22.08.34s0-.08,0,0a7.38,7.38,0,0,1,0,1.05c0,.14,0,.28-.07.41a1,1,0,0,0,0,.18l.08-.08c.1,0,.11-.07,0-.08s-.27-.09-.35-.12l-.39-.16a1.75,1.75,0,0,1-.95-1.14,30.89,30.89,0,0,1-1-4.14c-.12-.63-1.08-.36-1,.27Z" transform="translate(-0.78 1.5)"/><path class="cls-24" d="M38.62,32.33a.52.52,0,0,1,.36.24c1.29,1.67,1.59,3.94,2.87,5.62a.5.5,0,0,0,.29.23c.24,0,.41-.21.5-.44.52-1.31.18-4.69.18-4.69a27.61,27.61,0,0,1-.32-4.79" transform="translate(-0.78 1.5)"/><path d="M38.49,32.82c.25.06.54.72.66.93s.33.66.47,1c.3.68.55,1.38.86,2.06a6.2,6.2,0,0,0,1.1,1.83A.86.86,0,0,0,43,38.4a6.08,6.08,0,0,0,.43-3.08,18.35,18.35,0,0,0-.11-2.1A33.81,33.81,0,0,1,43,28.5a.5.5,0,0,0-1,0,28.85,28.85,0,0,0,.21,4c.08.62.15,1.16.18,1.83a12.15,12.15,0,0,1-.08,2.89c0,.18-.11.36-.14.54s-.08.1-.08.14h.1c.11,0,.12,0,0-.07s-.24-.34-.31-.45a12.49,12.49,0,0,1-.9-1.88c-.27-.68-.54-1.36-.86-2s-.71-1.51-1.4-1.68a.5.5,0,0,0-.27,1Z" transform="translate(-0.78 1.5)"/><path class="cls-25" d="M35.26,33.65c.12.65.27,1.3.45,1.94a6.18,6.18,0,0,0,1,2.08,2.56,2.56,0,0,0,2,1,.54.54,0,0,0,.37-.11.6.6,0,0,0,.13-.46,51.14,51.14,0,0,0-.24-5.8" transform="translate(-0.78 1.5)"/><path d="M34.78,33.78c.31,1.73.74,3.85,2.27,4.92.59.42,1.88.89,2.4.15a2.4,2.4,0,0,0,.2-1.33c0-.52,0-1.05,0-1.58,0-1.19-.11-2.39-.23-3.59a.51.51,0,0,0-.5-.5.5.5,0,0,0-.5.5c.11,1.13.19,2.27.22,3.4q0,.82,0,1.65c0,.28,0,.56,0,.84q0,.06,0,0s0,0,0,0a1.32,1.32,0,0,0-.29,0,2.71,2.71,0,0,1-1.8-1.72,13.25,13.25,0,0,1-.81-3c-.11-.64-1.07-.37-1,.26Z" transform="translate(-0.78 1.5)"/><path class="cls-26" d="M28.47,41.64c0,1.11,1.25,2.31,1.51,2.92a1.38,1.38,0,0,0,.21.34,1.63,1.63,0,0,0,.29.23,2.17,2.17,0,0,0,1.56.32,2.2,2.2,0,0,0,1.53-1.59,3.32,3.32,0,0,0,.13-2.29,3,3,0,0,0-3.2-2.07A2.57,2.57,0,0,0,28.47,41.64Z" transform="translate(-0.78 1.5)"/><path d="M28,41.64a3.41,3.41,0,0,0,.67,1.83,13.48,13.48,0,0,1,.9,1.33,2.41,2.41,0,0,0,3.79.46,4,4,0,0,0,.82-1.54,3.65,3.65,0,0,0,.1-2.07A3.71,3.71,0,0,0,31.31,39,3.06,3.06,0,0,0,28,41.64c0,.64,1,.64,1,0A2.06,2.06,0,0,1,31,40a2.62,2.62,0,0,1,2.18,1.75,3.13,3.13,0,0,1-.43,2.65,1.35,1.35,0,0,1-1.25.63,1.89,1.89,0,0,1-.81-.29.94.94,0,0,1-.34-.42C30,43.4,29,42.67,29,41.64A.5.5,0,0,0,28,41.64Z" transform="translate(-0.78 1.5)"/><path class="cls-26" d="M28.37,39.38a3.34,3.34,0,0,0,2.26,1.51,1.28,1.28,0,0,0,1.17-.1c.47-.41.43-1.38.27-2.24-.28-1.53,0-2.22-.16-2.48a2.22,2.22,0,0,0-3.25-.52A3.42,3.42,0,0,0,28.37,39.38Z" transform="translate(-0.78 1.5)"/><path d="M27.94,39.63a4,4,0,0,0,2.9,1.81A1.61,1.61,0,0,0,32,41.25a1.55,1.55,0,0,0,.56-.84,5.36,5.36,0,0,0-.08-2.29,10.45,10.45,0,0,1,0-1.68,1.46,1.46,0,0,0-.59-1.19,2.68,2.68,0,0,0-3.55,0,3.85,3.85,0,0,0-.37,4.43c.31.56,1.18.06.86-.51a3,3,0,0,1,0-3,1.59,1.59,0,0,1,2.2-.28,1.34,1.34,0,0,1,.39.36l0,.05q.07.12,0,0v0c0,.08,0-.13,0,0v.09c0,.4,0,.8,0,1.2,0,.65.21,1.28.23,1.93,0,.37,0,1-.46,1a3.59,3.59,0,0,1-1.16-.28,2.56,2.56,0,0,1-1.26-1.08A.5.5,0,0,0,27.94,39.63Z" transform="translate(-0.78 1.5)"/><path class="cls-27" d="M30.31,33.12a5,5,0,0,1,.4,1.85,5.4,5.4,0,0,0,1,2.49c.3.39.79.77,1.24.58a1.27,1.27,0,0,0,.47-.45,10.15,10.15,0,0,0,1.66-4" transform="translate(-0.78 1.5)"/><path d="M29.88,33.37a8.66,8.66,0,0,1,.44,2.22,5.75,5.75,0,0,0,1,2.17c.47.62,1.33,1.15,2.06.6a3.16,3.16,0,0,0,.75-1,8.36,8.36,0,0,0,.58-1.06,10.25,10.25,0,0,0,.85-2.65.52.52,0,0,0-.34-.62.51.51,0,0,0-.62.35A9.66,9.66,0,0,1,33.81,36a8.89,8.89,0,0,1-.69,1.2c-.16.24-.28.5-.59.32a2.28,2.28,0,0,1-.71-.86,5,5,0,0,1-.5-1.17,11.23,11.23,0,0,0-.57-2.63c-.31-.56-1.17-.06-.87.51Z" transform="translate(-0.78 1.5)"/><path class="cls-17" d="M64.16,33.29A3.39,3.39,0,0,0,65,35.94a1.46,1.46,0,0,0,.78.69,1.26,1.26,0,0,0,.82-.18c1.57-.79,1.59-4.58-.1-5" transform="translate(-0.78 1.5)"/><path d="M63.67,33.16a4,4,0,0,0,1.06,3.25,1.49,1.49,0,0,0,1.45.71,2.11,2.11,0,0,0,1.15-.58,4.11,4.11,0,0,0,.75-4A2.13,2.13,0,0,0,66.63,31c-.62-.15-.89.81-.26,1l.16.05c-.09,0,0,0,0,0l.1.06s.07.06.09.09.11.12.09.09,0,.07.06.09l.09.16,0,.1a3,3,0,0,1,.21,1.52,3.07,3.07,0,0,1-.41,1.37,1,1,0,0,1-.09.13c-.06.08,0,0,0,0l-.06.07-.13.13,0,0s.06,0,0,0c-.24.15-.54.32-.78.11a2.65,2.65,0,0,1-.41-.54,6.68,6.68,0,0,1-.41-.67,2,2,0,0,1-.26-1.4.5.5,0,0,0-1-.27Z" transform="translate(-0.78 1.5)"/><path class="cls-26" d="M27,34.84A5,5,0,0,0,28.6,36.9a.36.36,0,0,0,.26.09c.12,0,.22-.14.32-.26a4,4,0,0,0,1.09-2.44c0-.58-.09-.61-.13-1.33-.11-1.79.65-2.57.43-3.25-.28-.87-2-1.14-3.07.33A6,6,0,0,0,27,34.84Z" transform="translate(-0.78 1.5)"/><path d="M26.54,35a4.83,4.83,0,0,0,.7,1.23c.48.63,1.42,1.81,2.22,1A4.91,4.91,0,0,0,30.69,35a9.83,9.83,0,0,0-.06-2.3,7.55,7.55,0,0,1,.38-2.1,1.58,1.58,0,0,0-.22-1.5c-1-1.15-2.78-.52-3.58.49A6.12,6.12,0,0,0,26.54,35c.2.61,1.17.34,1-.27a5.63,5.63,0,0,1,.09-3.82,2.28,2.28,0,0,1,1.15-1.27,1.27,1.27,0,0,1,1.17,0c.25.17.22.33.14.63-.12.5-.29,1-.37,1.5a7.2,7.2,0,0,0,0,2,2.67,2.67,0,0,1-.33,1.73,5,5,0,0,1-.29.45,1.76,1.76,0,0,1-.37.48c.1-.06.16.09,0-.1s-.19-.17-.28-.26a5.14,5.14,0,0,1-.38-.42,5.31,5.31,0,0,1-.48-.75l-.1-.22c0,.12,0,0,0,0C27.3,34.1,26.33,34.36,26.54,35Z" transform="translate(-0.78 1.5)"/><path class="cls-28" d="M55.83,28.44a10.7,10.7,0,0,0,1.07,4c.2.42.54.87,1,.83a.82.82,0,0,0,.61-.49,2.45,2.45,0,0,0,.18-.8l.16-1.52a1.05,1.05,0,0,0,0-.5,1.64,1.64,0,0,0-.35-.49,1.79,1.79,0,0,1-.2-1.93" transform="translate(-0.78 1.5)"/><path d="M55.33,28.44a11.89,11.89,0,0,0,.52,2.72c.15.43.32.86.51,1.27a2.59,2.59,0,0,0,.65,1,1.25,1.25,0,0,0,2-.61,5.83,5.83,0,0,0,.21-1.38A7.14,7.14,0,0,0,59.36,30c-.06-.52-.49-.75-.67-1.2a1.33,1.33,0,0,1,0-1.07c.28-.58-.58-1.08-.87-.5a2.36,2.36,0,0,0,.29,2.54c.12.14.24.23.24.43s0,.5-.08.74a6.15,6.15,0,0,1-.2,1.49c-.34.91-1-.86-1.12-1.13a10.18,10.18,0,0,1-.64-2.89c0-.63-1-.64-1,0Z" transform="translate(-0.78 1.5)"/><path class="cls-19" d="M58.63,27.25l1.19,4.05a2.61,2.61,0,0,0,.81,1.47.26.26,0,0,0,.4-.05,4.53,4.53,0,0,0,.83-2.95L62,26.92" transform="translate(-0.78 1.5)"/><path d="M58.15,27.39,59,30.26a7.85,7.85,0,0,0,.9,2.45,1.19,1.19,0,0,0,1,.62c.42,0,.71-.5.9-.84a5.53,5.53,0,0,0,.54-2.34c.06-1.08.1-2.16.14-3.23,0-.65-1-.65-1,0,0,1-.08,2-.13,3a7.71,7.71,0,0,1-.14,1.26,3.74,3.74,0,0,1-.17.57c-.08.17-.23.32-.29.49l-.08.09c.21,0,.27,0,.18-.07s-.11-.11-.15-.17a2.3,2.3,0,0,1-.26-.52c-.16-.46-.28-.93-.42-1.4l-.91-3.09a.5.5,0,0,0-1,.27Z" transform="translate(-0.78 1.5)"/><path class="cls-17" d="M62.22,27a11.75,11.75,0,0,0,.25,3.45,3.31,3.31,0,0,0,.42,1.11c.2.31.49.54.72.83s.57.87,1,.91a.89.89,0,0,0,.85-.56,2.57,2.57,0,0,0,.18-1.07c0-1.19,0-2.37,0-3.56" transform="translate(-0.78 1.5)"/><path d="M61.72,27a12.56,12.56,0,0,0,.17,3.06,5.78,5.78,0,0,0,.37,1.37,3.89,3.89,0,0,0,.8,1.09c.52.56.93,1.41,1.84,1.27s1.26-1.25,1.28-2.12c0-1.19,0-2.38,0-3.56a.5.5,0,0,0-1,0c0,1.1,0,2.21,0,3.32,0,.39,0,1-.25,1.25s-.5,0-.67-.25-.57-.65-.84-1a2.61,2.61,0,0,1-.5-1.24,11.46,11.46,0,0,1-.21-3.2c.05-.64-.95-.64-1,0Z" transform="translate(-0.78 1.5)"/><path class="cls-29" d="M65.68,27.85l.18,2.87a2.17,2.17,0,0,0,.22,1,1.07,1.07,0,0,0,1,.5.38.38,0,0,0,.25-.08.51.51,0,0,0,.13-.29l.72-3.13-2.45-4.64Z" transform="translate(-0.78 1.5)"/><path d="M65.18,27.85c.06.9.12,1.81.17,2.71a2.2,2.2,0,0,0,.8,1.9,1.17,1.17,0,0,0,1.68-.23A5.51,5.51,0,0,0,68.14,31l.31-1.33c.1-.44.31-.91.1-1.33l-.36-.68L67,25.38l-.83-1.58a.5.5,0,0,0-.93.26l0,3.79a.5.5,0,0,0,1,0l0-3.79-.93.25L67.73,29l0-.38-.47,2c-.08.34-.15.68-.23,1,0,.06,0,.12,0,.18.17-.09.17-.12,0-.1a1.57,1.57,0,0,1-.28-.1c-.43-.31-.32-1.22-.35-1.68l-.13-2.07C66.15,27.21,65.15,27.21,65.18,27.85Z" transform="translate(-0.78 1.5)"/><path class="cls-30" d="M31.13,30.07c.05.66,0,1.34.11,2a2.43,2.43,0,0,0,.95,1.71A1.31,1.31,0,0,0,34,33.49a2,2,0,0,0,.22-.75l.2-1.31a2.91,2.91,0,0,1,.12-.51c.06-.15.16-.28.23-.43a3.05,3.05,0,0,0,.12-1.7" transform="translate(-0.78 1.5)"/><path d="M30.63,30.07a12,12,0,0,0,.23,2.61,2.58,2.58,0,0,0,1.42,1.7A1.82,1.82,0,0,0,34.22,34a2.06,2.06,0,0,0,.45-1.11l.21-1.36a2.1,2.1,0,0,1,.19-.6,2.73,2.73,0,0,0,.28-.66,4.27,4.27,0,0,0,0-1.47.51.51,0,0,0-.5-.5.51.51,0,0,0-.5.5,3.31,3.31,0,0,1,0,1.33,3.07,3.07,0,0,1-.24.48,2.35,2.35,0,0,0-.2.7c-.07.46-.14.93-.22,1.4s-.12.63-.42.75a1.11,1.11,0,0,1-1.34-.76,7.48,7.48,0,0,1-.3-2.62.51.51,0,0,0-.5-.5.5.5,0,0,0-.5.5Z" transform="translate(-0.78 1.5)"/><path class="cls-31" d="M35,26.09a47.81,47.81,0,0,1,.35,5.74A2.82,2.82,0,0,0,35.48,33a1,1,0,0,0,1.08.55,2,2,0,0,0,1.88-1.49,4.89,4.89,0,0,0,.12-1.33V22" transform="translate(-0.78 1.5)"/><path d="M34.47,26.09c.13,1.1.23,2.2.29,3.3s0,2,.07,3A1.64,1.64,0,0,0,36,34a2.45,2.45,0,0,0,1.86-.36c1.58-1,1.18-3.27,1.18-4.87V22a.5.5,0,0,0-1,0v8.05a4.54,4.54,0,0,1-.27,2.29,1.52,1.52,0,0,1-1.37.73c-.81-.07-.6-1.23-.6-1.8a47.26,47.26,0,0,0-.35-5.18c-.08-.63-1.08-.64-1,0Z" transform="translate(-0.78 1.5)"/><path class="cls-32" d="M38.51,24a39.58,39.58,0,0,1,.85,5.43,8,8,0,0,0,.37,2.51.92.92,0,0,0,.32.44c.37.2.75-.23,1-.62a17.2,17.2,0,0,0,2-5.52" transform="translate(-0.78 1.5)"/><path d="M38,24.13a46,46,0,0,1,.78,4.65c.07.76.07,1.53.18,2.29a2.44,2.44,0,0,0,.77,1.71c1.25.78,2.1-1.46,2.46-2.26a18.3,18.3,0,0,0,1.28-4.15c.12-.63-.85-.9-1-.26a18.55,18.55,0,0,1-1,3.42,15.53,15.53,0,0,1-.75,1.6,3.48,3.48,0,0,1-.43.69.69.69,0,0,1-.13.11l0,0c-.09,0-.15-.35-.17-.43a8.46,8.46,0,0,1-.23-1.81c0-.63-.1-1.27-.18-1.9-.18-1.3-.43-2.59-.7-3.88-.12-.63-1.09-.37-1,.26Z" transform="translate(-0.78 1.5)"/><path class="cls-33" d="M43.08,27.25,43,31.55a4.36,4.36,0,0,0,.09,1.14,1.37,1.37,0,0,0,.69.87.84.84,0,0,0,1-.25A1.27,1.27,0,0,0,45,32.7l.16-2.23c0-.44.15-1,.59-1.07" transform="translate(-0.78 1.5)"/><path d="M42.58,27.25l-.07,3.69c0,1-.13,2.33.87,3a1.32,1.32,0,0,0,2.07-1.21c0-.62.09-1.24.13-1.86a4.64,4.64,0,0,1,.07-.64,1.25,1.25,0,0,1,.09-.25s0-.05,0-.07,0,0,0,0a.5.5,0,0,0-.27-1c-1,.25-.94,1.38-1,2.17,0,.53-.06,1.07-.11,1.61,0,.3-.15.57-.5.39a1.13,1.13,0,0,1-.44-1c0-.52,0-1,0-1.56l.06-3.32a.5.5,0,0,0-1,0Z" transform="translate(-0.78 1.5)"/><path class="cls-34" d="M45.5,30.06a22.62,22.62,0,0,0,.87,5.55c.19.64.52,1.38,1.18,1.46a.6.6,0,0,0,.53-.18.83.83,0,0,0,.14-.3,12.38,12.38,0,0,0,.5-2.69" transform="translate(-0.78 1.5)"/><path d="M45,30.06a25.58,25.58,0,0,0,.4,3.6,9.54,9.54,0,0,0,.85,3c.41.73,1.48,1.36,2.19.6A3.36,3.36,0,0,0,49,35.71a13.84,13.84,0,0,0,.26-1.81c0-.65-1-.64-1,0,0,.43-.09.86-.17,1.29,0,.23-.1.47-.15.7a2.05,2.05,0,0,1-.18.61c-.31.43-.81-.82-.87-1A22.6,22.6,0,0,1,46,30.06c0-.64-1-.64-1,0Z" transform="translate(-0.78 1.5)"/><path class="cls-35" d="M48.85,33.3a5.66,5.66,0,0,0,1.48,2.61,1.38,1.38,0,0,0,1.19.38c.59-.17.82-.88.87-1.5a8,8,0,0,0-.3-3.08" transform="translate(-0.78 1.5)"/><path d="M48.37,33.43c.41,1.24,1,2.75,2.32,3.27a1.47,1.47,0,0,0,1.79-.56,3.48,3.48,0,0,0,.45-1.87,8.8,8.8,0,0,0-.36-2.7.5.5,0,0,0-1,.27,8,8,0,0,1,.32,2.43,3.54,3.54,0,0,1-.12.93.82.82,0,0,1-.13.33.59.59,0,0,1-.18.22c-.43.31-1.06-.39-1.31-.73a6.67,6.67,0,0,1-.85-1.86c-.21-.6-1.17-.34-1,.27Z" transform="translate(-0.78 1.5)"/><path class="cls-26" d="M30.75,29.32a4.33,4.33,0,0,1-.62,1.73,1.48,1.48,0,0,1-1.6.65,1.91,1.91,0,0,1-1-1.26,4.2,4.2,0,0,1-.36-2.14c.86-4.3,1.78-5,1.78-5L29.8,22" transform="translate(-0.78 1.5)"/><path d="M30.27,29.19A3.18,3.18,0,0,1,29.54,31c-.57.51-1.14.24-1.44-.39a4.11,4.11,0,0,1-.49-2,13.34,13.34,0,0,1,.47-2.06,11.09,11.09,0,0,1,.83-2.3,3.58,3.58,0,0,1,.29-.46c-.09.12,0,0,.07-.07.35-.43.65-.93,1-1.39s-.5-1-.86-.5l-.6.87c-.09.13-.17.26-.27.39s.11-.14,0-.06a4.29,4.29,0,0,0-.69,1.14,18.23,18.23,0,0,0-1.1,3.62,4.39,4.39,0,0,0,.13,2.46A3.17,3.17,0,0,0,28,32a1.82,1.82,0,0,0,2.11-.24,3.82,3.82,0,0,0,1.09-2.32c.13-.63-.83-.9-1-.26Z" transform="translate(-0.78 1.5)"/><path class="cls-36" d="M65.21,28C65,23,66,18,63,13,56,4,45,6,36,9c-5,6-8,14-5,21a3.49,3.49,0,0,0,2,1c1-2,2-4,3.07-6.31,1.34.89-1.11,1.3.22.06.32-.16,0,0,0,0C41,24,46,28,48,33h2c4-4,9-9,14.62-4.51" transform="translate(-0.78 1.5)"/><path d="M65.71,28c-.1-2.68.12-5.37-.1-8s-.85-5.62-2.57-7.71A17.08,17.08,0,0,0,51.82,6.14,32.47,32.47,0,0,0,39.1,7.52c-1,.29-2.06.59-3.07,1-.53.18-.83.71-1.16,1.14s-.79,1.06-1.16,1.6A27.11,27.11,0,0,0,30.3,18a18.71,18.71,0,0,0-.85,8.2,12.5,12.5,0,0,0,1.07,3.89A3.21,3.21,0,0,0,33,31.5a.48.48,0,0,0,.43-.25c1-2.09,2.09-4.18,3.07-6.3l-.68.17c.33.24,0,.05.27-.09s.21.36.3.35.26-.25.3-.27l-.51-.87-.15.08c-.55.27-.12,1,.39.91,4.95-.73,9.37,3.67,11.1,7.9a.51.51,0,0,0,.48.37h1.25c.49,0,.86.08,1.24-.28a52.13,52.13,0,0,1,4-3.69,10.5,10.5,0,0,1,4.55-2.23,6.62,6.62,0,0,1,5.2,1.54c.5.39,1.21-.31.7-.71a8.32,8.32,0,0,0-4.14-1.86,7.69,7.69,0,0,0-4.06.71c-2.78,1.24-5,3.54-7.12,5.67L50,32.5H48l.48.37c-1.95-4.8-6.77-9.42-12.33-8.6l.39.91.15-.07c.57-.29.07-1.15-.51-.87a1.42,1.42,0,0,0-.8,1.14.7.7,0,0,0,.75.65.88.88,0,0,0,.82-.61c.15-.5-.26-.89-.63-1.16a.49.49,0,0,0-.68.18c-1,2.12-2,4.22-3.07,6.31L33,30.5a2.55,2.55,0,0,1-1.36-.6c-.33-.26-.32-.42-.48-.87a14.39,14.39,0,0,1-.78-3.36,17.73,17.73,0,0,1,.71-6.79,25.63,25.63,0,0,1,3-6.39c.32-.49.64-1,1-1.45a8.79,8.79,0,0,1,1.18-1.53,3.85,3.85,0,0,1,1.19-.44L39,8.6A33.78,33.78,0,0,1,50.67,7a16.19,16.19,0,0,1,10.64,4.79,10.14,10.14,0,0,1,2.33,3.64,16.31,16.31,0,0,1,1,4.2c.26,2.78,0,5.57.12,8.36,0,.64,1,.64,1,0Z" transform="translate(-0.78 1.5)"/><path class="cls-37" d="M41.86,16.71a4.62,4.62,0,0,0-2.21-.8,2.69,2.69,0,0,0-2.15.31c-.49.44-.4,1-1,1.28-.37.18-.5,0-.87.25a1.93,1.93,0,0,0-.72,1,2.51,2.51,0,0,0-.11.59c0,1-.12,2.33.7,3.17a4.53,4.53,0,0,0,2,1h0s1-.09,2-.09c.64,0,1.08,0,2.29,0a2.13,2.13,0,0,0,.94-.14c.54-.26.7-.91.83-1.46a4.73,4.73,0,0,0-.05-3A4.5,4.5,0,0,0,41.86,16.71Z" transform="translate(-0.78 1.5)"/><path d="M42.11,16.28a6,6,0,0,0-3-.93,2.92,2.92,0,0,0-1.65.29c-.51.3-.62.76-1,1.21a.69.69,0,0,1-.53.27,1.6,1.6,0,0,0-.8.35,2.48,2.48,0,0,0-.73,1.1A4.91,4.91,0,0,0,34.28,20a5.61,5.61,0,0,0,.15,1.52,3.19,3.19,0,0,0,2.06,2.18,4.32,4.32,0,0,0,.86.28,4.6,4.6,0,0,0,1,0c1-.05,2,0,3.06,0a2.89,2.89,0,0,0,1.74-.29,2.17,2.17,0,0,0,.81-1.27A5.79,5.79,0,0,0,44,18.84a5.23,5.23,0,0,0-1.91-2.56c-.52-.38-1,.49-.51.87a4.14,4.14,0,0,1,1.52,4.42,3.59,3.59,0,0,1-.33,1c-.29.46-.86.36-1.33.35-.76,0-1.52,0-2.29,0-.46,0-.91,0-1.37.07,0,0-.38,0-.23,0s-.07,0-.12,0a2.84,2.84,0,0,1-1.88-1.22,4.62,4.62,0,0,1-.27-2.42,1.89,1.89,0,0,1,.26-.81,1,1,0,0,1,.44-.4c.2-.07.43-.05.63-.14a1.9,1.9,0,0,0,.94-1,1.2,1.2,0,0,1,1.25-.63,5,5,0,0,1,2.78.81C42.14,17.51,42.64,16.64,42.11,16.28Z" transform="translate(-0.78 1.5)"/><path class="cls-37" d="M59,15.86a2.24,2.24,0,0,1,1.47,1.08A4.35,4.35,0,0,1,61,18.71a2.5,2.5,0,0,1-.37,1.95,3,3,0,0,1-1.14.72L58,22.05a4.92,4.92,0,0,1-2.2.56,4.84,4.84,0,0,1-2.32-1.07,2.13,2.13,0,0,1-.52-.47c-.41-.62,0-1.44.53-2A10.1,10.1,0,0,1,59,15.58" transform="translate(-0.78 1.5)"/><path d="M58.86,16.35c1.33.27,1.73,1.91,1.68,3.09a1.45,1.45,0,0,1-1,1.35c-.68.33-1.39.62-2.09.91a3.2,3.2,0,0,1-2.14.33,5.45,5.45,0,0,1-1.81-1c-1-.8,1-2.45,1.61-2.95a9.06,9.06,0,0,1,4-2c.63-.13.36-1.09-.27-1a10.05,10.05,0,0,0-4.44,2.29c-1,.86-3,2.71-1.77,4.12a4.19,4.19,0,0,0,.88.69,6.7,6.7,0,0,0,1.26.69,3.6,3.6,0,0,0,2.64-.09c.9-.33,1.81-.73,2.68-1.14a2.38,2.38,0,0,0,1.4-1.79c.27-1.7-.46-4.1-2.36-4.49-.63-.13-.9.84-.27,1Z" transform="translate(-0.78 1.5)"/><path class="cls-38" d="M46.66,22.15c.42,3.23.88,6.59,2.67,9.32a.48.48,0,0,0,.77.17,4.21,4.21,0,0,0,1.57-3.09,34.27,34.27,0,0,0,.43-5.72" transform="translate(-0.78 1.5)"/><path d="M46.16,22.15a26.42,26.42,0,0,0,2,8.31,4.48,4.48,0,0,0,1,1.64c.55.38,1.18,0,1.6-.39a5.67,5.67,0,0,0,1.38-3.4,35.89,35.89,0,0,0,.39-5.48.5.5,0,0,0-1,0,33.84,33.84,0,0,1-.36,5.22,8.48,8.48,0,0,1-.47,2,3,3,0,0,1-.5.82,1.32,1.32,0,0,1-.36.31c-.21.07-.21,0-.32-.23-1.62-2.63-2-5.78-2.43-8.79-.08-.63-1.08-.64-1,0Z" transform="translate(-0.78 1.5)"/><path class="cls-39" d="M37.67,15.94a1.62,1.62,0,0,1-.5-2,3,3,0,0,1,1.65-1.44,7.9,7.9,0,0,1,4.42-.22c1.48.28,2.91.74,4.39.94,3.06.39,6.15-.38,9.23-.4a1.82,1.82,0,0,1,1,.19,1.74,1.74,0,0,1,.49.52l1.25,1.74a.38.38,0,0,1,.11.28c0,.16-.2.24-.35.29l-3.27,1a5,5,0,0,0-2.91,1.75c-.65,1.05-.42,2.44-.89,3.59a.76.76,0,0,1-.29.41.84.84,0,0,1-.52.05c-.91-.12-1.77-.48-2.67-.61-1.36-.18-2.89.14-4-.66a2.37,2.37,0,0,1-1-1.91c0-.59.2-1.23-.1-1.75a1.74,1.74,0,0,0-.5-.51,11.1,11.1,0,0,0-4.81-2.09c-.43-.08-1-.08-1.2.29" transform="translate(-0.78 1.5)"/><path d="M37.92,15.51c-.87-.62-.19-1.79.48-2.23a5.19,5.19,0,0,1,2.83-.71c2.16,0,4.21.86,6.34,1.14a28.53,28.53,0,0,0,6.33-.2,19.77,19.77,0,0,1,3.17-.19c.66,0,.89.55,1.25,1s.81.88.89,1.32l0-.38c-.07.14-.48.19-.64.24l-.81.25-1.87.59a7.46,7.46,0,0,0-2.4,1.09,3.57,3.57,0,0,0-1.3,2.28c-.09.45-.12.91-.2,1.37a5.37,5.37,0,0,1-.15.67c-.12.38-.25.4-.64.33a24,24,0,0,0-3.15-.62,5.73,5.73,0,0,1-3-.49,1.89,1.89,0,0,1-.8-1.22,12.73,12.73,0,0,1,0-1.51c-.07-1-.85-1.49-1.61-2a11.66,11.66,0,0,0-3.2-1.43c-.83-.22-2.06-.6-2.71.19-.41.5.3,1.21.7.71s1-.12,1.34,0a11.47,11.47,0,0,1,1.51.47,7.57,7.57,0,0,1,2.73,1.6c.38.43.2,1,.18,1.48a2.9,2.9,0,0,0,.21,1.24,3,3,0,0,0,1.74,1.67,9.17,9.17,0,0,0,2.77.3,29.36,29.36,0,0,1,3.21.63,1.3,1.3,0,0,0,1.64-1.06c.28-.91.2-1.9.54-2.8a3.29,3.29,0,0,1,2.2-1.72c1-.36,2.12-.67,3.18-1,.64-.2,1.76-.47,1.33-1.39a9.74,9.74,0,0,0-.92-1.29,5.82,5.82,0,0,0-.89-1.14c-.75-.62-2-.41-2.85-.35-1.15.08-2.29.22-3.44.33a23,23,0,0,1-3.42.1,18.34,18.34,0,0,1-3.36-.59c-2.24-.54-4.72-1.09-6.91,0a3.08,3.08,0,0,0-1.74,2,2.13,2.13,0,0,0,.85,2.18c.52.37,1-.5.5-.87Z" transform="translate(-0.78 1.5)"/><path class="cls-40" d="M52.14,31.53A14.7,14.7,0,0,0,54.91,35a.31.31,0,0,0,.23.12c.16,0,.23-.21.23-.38.08-1.36-.36-2.75,0-4.08a4.59,4.59,0,0,0,.33-1.91" transform="translate(-0.78 1.5)"/><path d="M51.71,31.78a16.35,16.35,0,0,0,1.85,2.6,9.74,9.74,0,0,0,1.06,1.07.72.72,0,0,0,1.19-.32,3.88,3.88,0,0,0,0-1.52c0-.55-.11-1.09-.13-1.64a5.35,5.35,0,0,1,.21-1.59,3.78,3.78,0,0,0,.22-1.73.5.5,0,0,0-1,.27,3.34,3.34,0,0,1-.28,1.42,5.53,5.53,0,0,0-.18,1.57c0,.51.07,1,.12,1.52,0,.26,0,.51.05.77,0,.11,0,.23,0,.35a1.77,1.77,0,0,1,0,.23c0,.07,0,0,.13-.1h.27c-.1,0-.25-.22-.32-.3s-.26-.25-.39-.39-.51-.57-.75-.87a14.56,14.56,0,0,1-1.24-1.85c-.31-.56-1.18-.05-.86.51Z" transform="translate(-0.78 1.5)"/><path d="M38.48,50.37a3.35,3.35,0,0,0,1.79,2.09,3.12,3.12,0,0,0,1.41.31,1.24,1.24,0,0,0,.86-.32.84.84,0,0,0,.21-.89.51.51,0,0,0-.61-.35.5.5,0,0,0-.35.62c0,.08,0,0,0-.06l0,0s0,0,0,0,0,0,0,0l-.08,0c.06,0,0,0-.06,0H41.4a2.15,2.15,0,0,1-.5-.12l-.11,0,0,0-.23-.12-.2-.13-.09-.07,0,0a3.85,3.85,0,0,1-.35-.35l0,0-.08-.12a2.39,2.39,0,0,1-.13-.21.47.47,0,0,0-.05-.1s0-.1,0,0l-.09-.27a.5.5,0,0,0-.61-.35.5.5,0,0,0-.35.61Z" transform="translate(-0.78 1.5)"/></g></svg>